STARTFONT 2.1
COMMENT
COMMENT Converted from OpenType font "manrope-bold.otf" by "otf2bdf 3.0".
COMMENT
FONT -FreeType-Manrope-Bold-R-Normal--46-330-100-100-P-220-ISO10646-1
SIZE 33 100 100
FONTBOUNDINGBOX 46 58 -2 -11
STARTPROPERTIES 19
FOUNDRY "FreeType"
FAMILY_NAME "Manrope"
WEIGHT_NAME "Bold"
SLANT "R"
SETWIDTH_NAME "Normal"
ADD_STYLE_NAME ""
PIXEL_SIZE 46
POINT_SIZE 330
RESOLUTION_X 100
RESOLUTION_Y 100
SPACING "P"
AVERAGE_WIDTH 220
CHARSET_REGISTRY "ISO10646"
CHARSET_ENCODING "1"
FONT_ASCENT 49
FONT_DESCENT 13
COPYRIGHT "Copyright 2019-2021 The Manrope Project Authors (https://github.com/sharanda/manrope)"
_OTF_FONTFILE "manrope-bold.otf"
_OTF_PSNAME "Manrope-Bold"
ENDPROPERTIES
CHARS 191
STARTCHAR 0020
ENCODING 32
SWIDTH 196 0
DWIDTH 9 0
BBX 0 0 0 0
BITMAP
ENDCHAR
STARTCHAR 0021
ENCODING 33
SWIDTH 370 0
DWIDTH 17 0
BBX 6 33 5 0
BITMAP
FC
FC
FC
FC
FC
FC
FC
FC
FC
FC
FC
FC
FC
FC
FC
FC
FC
FC
FC
FC
FC
FC
FC
FC
FC
00
00
00
FC
FC
FC
FC
FC
ENDCHAR
STARTCHAR 0022
ENCODING 34
SWIDTH 458 0
DWIDTH 21 0
BBX 14 8 3 25
BITMAP
F8FC
F8FC
F8FC
F8FC
F8FC
F8FC
F8FC
F8FC
ENDCHAR
STARTCHAR 0023
ENCODING 35
SWIDTH 938 0
DWIDTH 43 0
BBX 37 33 3 0
BITMAP
0003F07E00
0003E07C00
0003E07C00
0003E07C00
0007E0FC00
0007C0F800
0007C0F800
000FC1F800
0FFFFFFFF8
0FFFFFFFF8
1FFFFFFFF0
1FFFFFFFF0
1FFFFFFFF0
001F03E000
001F03E000
003F07E000
003E07C000
003E07C000
003E0FC000
7FFFFFFFC0
7FFFFFFFC0
FFFFFFFF80
FFFFFFFF80
FFFFFFFF80
00F81F0000
00F81F0000
01F83F0000
01F03E0000
01F03E0000
01F03E0000
03F07E0000
03E07C0000
03E07C0000
ENDCHAR
STARTCHAR 0024
ENCODING 36
SWIDTH 632 0
DWIDTH 29 0
BBX 25 41 2 -4
BITMAP
003E0000
003E0000
003E0000
003E0000
00FF8000
07FFE000
0FFFF800
1FFFFC00
3FFFFE00
3F81FE00
7E007F00
7E003F00
7C001F80
7E001E00
7E000000
7F000000
3FC00000
3FFC0000
1FFF8000
0FFFF000
07FFFC00
00FFFE00
001FFF00
0001FF00
00007F80
00001F80
18001F80
FC000F80
FC001F80
FE001F80
7F003F00
7F807F00
3FFFFE00
1FFFFE00
0FFFFC00
03FFF000
00FFC000
003E0000
003E0000
003E0000
003E0000
ENDCHAR
STARTCHAR 0025
ENCODING 37
SWIDTH 894 0
DWIDTH 41 0
BBX 36 33 3 0
BITMAP
07E0000200
1FF8000700
3FFC000F80
7FFE001FC0
7FFE003F80
FC3F007F00
F81F00FE00
F01F01FC00
F81F03F800
F81F07F000
FC3F0FE000
7FFE1FC000
7FFE3F8000
3FFC7F0000
1FF8FE0000
07E1FC0000
0003F80000
0007F07C00
000FE1FF00
003FC7FF80
007F87FFC0
00FF0FFFE0
01FE1F87E0
03FC1F03E0
07F81F01F0
0FF01F01E0
1FE01F03E0
3FC01F87E0
7F800FFFE0
3F000FFFC0
1E0007FF80
1C0001FF00
0800007C00
ENDCHAR
STARTCHAR 0026
ENCODING 38
SWIDTH 676 0
DWIDTH 31 0
BBX 28 33 2 0
BITMAP
007F0000
03FFC000
07FFF000
0FFFF800
1FFFF800
1FC3FC00
3F80FC00
3F006000
3F000000
3F000000
3F000000
3F000000
1F800000
1FC00000
0FE00000
0FF80000
1FFC0F00
3FFE0F00
7FFF0F00
7E3F8F00
7C1FCF00
FC0FEF00
FC07FF00
FC03FF00
FC00FF00
7E007F00
7F007F80
7FE3FFC0
3FFFFFE0
1FFFFFF0
0FFFFBE0
07FFE1C0
00FF0080
ENDCHAR
STARTCHAR 0027
ENCODING 39
SWIDTH 261 0
DWIDTH 12 0
BBX 5 8 3 25
BITMAP
F8
F8
F8
F8
F8
F8
F8
F8
ENDCHAR
STARTCHAR 0028
ENCODING 40
SWIDTH 458 0
DWIDTH 21 0
BBX 13 47 6 -9
BITMAP
0080
00E0
01F0
03F0
03F0
07E0
0FC0
0FC0
0F80
1F80
1F00
3F00
3E00
3E00
7E00
7C00
7C00
7C00
7C00
7C00
FC00
F800
F800
F800
F800
F800
FC00
7C00
7C00
7C00
7C00
7C00
7C00
3E00
3E00
3E00
3F00
1F00
1F80
0F80
0FC0
07C0
07E0
03F0
03F8
01F0
00C0
ENDCHAR
STARTCHAR 0029
ENCODING 41
SWIDTH 458 0
DWIDTH 21 0
BBX 12 47 2 -9
BITMAP
1000
3800
7C00
FE00
7E00
3F00
3F00
1F80
0F80
0FC0
07C0
07C0
07E0
03E0
03E0
03E0
01F0
01F0
01F0
01F0
01F0
01F0
01F0
01F0
01F0
01F0
01F0
01F0
01F0
01F0
01F0
03F0
03E0
03E0
03E0
07E0
07C0
0FC0
0F80
1F80
1F80
3F00
3F00
7E00
FC00
7C00
3800
ENDCHAR
STARTCHAR 002A
ENCODING 42
SWIDTH 458 0
DWIDTH 21 0
BBX 16 16 2 17
BITMAP
03C0
03C0
03C0
03C0
73CE
FFFF
FFFF
FFFF
7FFE
0FE0
0FF0
1FF8
3FFC
7E7E
1C38
0C30
ENDCHAR
STARTCHAR 002B
ENCODING 43
SWIDTH 567 0
DWIDTH 26 0
BBX 20 21 3 6
BITMAP
00F000
00F000
00F000
00F000
00F000
00F000
00F000
00F000
FFFFF0
FFFFF0
FFFFF0
FFFFF0
00F000
00F000
00F000
00F000
00F000
00F000
00F000
00F000
00F000
ENDCHAR
STARTCHAR 002C
ENCODING 44
SWIDTH 305 0
DWIDTH 14 0
BBX 5 12 3 -6
BITMAP
F8
F8
F8
F8
F8
F8
18
18
38
F8
F0
E0
ENDCHAR
STARTCHAR 002D
ENCODING 45
SWIDTH 414 0
DWIDTH 19 0
BBX 14 4 3 12
BITMAP
FFFC
FFFC
FFFC
FFFC
ENDCHAR
STARTCHAR 002E
ENCODING 46
SWIDTH 305 0
DWIDTH 14 0
BBX 6 6 4 0
BITMAP
FC
FC
FC
FC
FC
FC
ENDCHAR
STARTCHAR 002F
ENCODING 47
SWIDTH 436 0
DWIDTH 20 0
BBX 14 33 3 0
BITMAP
00FC
00FC
00F8
00F8
01F8
01F8
01F0
01F0
03F0
03F0
03E0
07E0
07E0
07C0
07C0
0FC0
0FC0
0F80
0F80
1F80
1F80
1F00
1F00
3F00
3F00
3E00
7E00
7E00
7C00
7C00
FC00
FC00
F800
ENDCHAR
STARTCHAR 0030
ENCODING 48
SWIDTH 654 0
DWIDTH 30 0
BBX 24 33 3 0
BITMAP
00FF00
03FFC0
0FFFF0
1FFFF8
3FFFFC
3FE3FC
7F00FE
7E007E
7C003F
FC003F
FC003F
FC003F
FC003F
FC003F
FC003F
FC003F
FC003F
FC003F
FC003F
FC003F
FC003F
FC003F
FC003F
FC003F
7C003F
7E007E
7F00FE
3FE7FC
3FFFFC
1FFFF8
0FFFF0
03FFC0
00FF00
ENDCHAR
STARTCHAR 0031
ENCODING 49
SWIDTH 436 0
DWIDTH 20 0
BBX 12 33 3 0
BITMAP
07F0
1FF0
3FF0
FFF0
FFF0
FFF0
FBF0
F3F0
C3F0
03F0
03F0
03F0
03F0
03F0
03F0
03F0
03F0
03F0
03F0
03F0
03F0
03F0
03F0
03F0
03F0
03F0
03F0
03F0
03F0
03F0
03F0
03F0
03F0
ENDCHAR
STARTCHAR 0032
ENCODING 50
SWIDTH 589 0
DWIDTH 27 0
BBX 23 33 2 0
BITMAP
00FE00
03FFC0
0FFFE0
1FFFF0
3FFFF8
3FC7FC
7F01FC
7E00FE
7C007E
FC007E
FC007E
00007E
00007E
00007E
0000FC
0001FC
0003F8
0007F8
001FF0
003FC0
007F80
00FF00
01FE00
03FC00
07F800
1FF000
3FC000
7F8000
FFFFFE
FFFFFE
FFFFFE
FFFFFE
FFFFFE
ENDCHAR
STARTCHAR 0033
ENCODING 51
SWIDTH 589 0
DWIDTH 27 0
BBX 22 33 2 0
BITMAP
7FFFF8
7FFFF8
7FFFF8
7FFFF8
7FFFF8
0003F8
0007F0
000FE0
001FC0
003F80
00FF00
01FE00
03FE00
07FF80
03FFE0
01FFF0
01FFF0
0003F8
0001F8
0000FC
0000FC
0000FC
0000FC
0000FC
3800FC
FC01F8
FE03F8
7F8FF0
7FFFF0
3FFFE0
1FFFC0
07FF00
01FC00
ENDCHAR
STARTCHAR 0034
ENCODING 52
SWIDTH 610 0
DWIDTH 28 0
BBX 24 33 2 0
BITMAP
001F80
003F00
003F00
007E00
007E00
00FE00
00FC00
01FC00
01F800
03F800
03F000
07F000
07E000
0FE000
0FC1F8
1FC1F8
1F81F8
3F81F8
3F01F8
7F01F8
7E01F8
7E01F8
FFFFFF
FFFFFF
FFFFFF
FFFFFF
FFFFFF
0001F8
0001F8
0001F8
0001F8
0001F8
0001F8
ENDCHAR
STARTCHAR 0035
ENCODING 53
SWIDTH 589 0
DWIDTH 27 0
BBX 23 33 2 0
BITMAP
3FFFF0
3FFFF0
3FFFF0
3FFFF0
3FFFF0
3E0000
3E0000
3E0000
3E0000
3E0000
3E0000
3E0000
3E7E00
3FFFC0
3FFFE0
3FFFF0
7FFFF8
7F83F8
0E01FC
0000FC
00007C
00007E
00007E
00007C
3C007C
FE00FC
7F01FC
7FCFF8
3FFFF0
1FFFE0
0FFFC0
07FF80
00FE00
ENDCHAR
STARTCHAR 0036
ENCODING 54
SWIDTH 610 0
DWIDTH 28 0
BBX 23 33 3 0
BITMAP
00FF00
03FFC0
0FFFF0
1FFFF8
3FFFF0
3FC3E0
7F00C0
7E0000
7C0000
FC0000
FC0000
FC0000
FC7F00
FDFFC0
FFFFE0
FFFFF8
FFFFF8
FF83FC
FF00FC
FE007E
FC007E
FC007E
FC007E
FC007E
7C007E
7E00FE
7F01FC
3FC7FC
3FFFF8
1FFFF0
0FFFE0
03FF80
00FE00
ENDCHAR
STARTCHAR 0037
ENCODING 55
SWIDTH 523 0
DWIDTH 24 0
BBX 20 33 2 0
BITMAP
FFFFF0
FFFFF0
FFFFF0
FFFFF0
FFFFF0
0003F0
0003F0
0007E0
0007E0
000FC0
000FC0
000FC0
001F80
001F80
003F00
003F00
003F00
007E00
007E00
00FC00
00FC00
00FC00
01F800
01F800
03F000
03F000
03E000
07E000
07E000
0FC000
0FC000
1F8000
1F8000
ENDCHAR
STARTCHAR 0038
ENCODING 56
SWIDTH 610 0
DWIDTH 28 0
BBX 22 33 3 0
BITMAP
01FE00
07FF80
1FFFE0
3FFFE0
3FFFF0
7F87F8
7E01F8
7E01F8
7C00F8
7C00F8
7E01F8
7E01F8
7F87F8
3FFFF0
1FFFE0
1FFFE0
3FFFF0
7FFFF8
7F03F8
FE01FC
FC00FC
FC00FC
FC00FC
FC00FC
FC00FC
FC00FC
FE01FC
7F87F8
7FFFF8
3FFFF0
1FFFE0
07FF80
01FE00
ENDCHAR
STARTCHAR 0039
ENCODING 57
SWIDTH 610 0
DWIDTH 28 0
BBX 23 33 2 0
BITMAP
00FE00
03FFC0
07FFE0
1FFFF0
1FFFF8
3FE7FC
7F01FC
7E00FE
7E007E
FC007E
FC003E
FC003E
7C007E
7E007E
7F00FE
3F83FE
3FFFFE
1FFFFE
0FFFFE
07FF3E
00FC3E
00003E
00003E
00007E
00007E
0000FE
0201FC
0787FC
0FFFF8
3FFFF0
0FFFE0
07FFC0
00FE00
ENDCHAR
STARTCHAR 003A
ENCODING 58
SWIDTH 349 0
DWIDTH 16 0
BBX 6 19 5 3
BITMAP
FC
FC
FC
FC
FC
FC
00
00
00
00
00
00
00
FC
FC
FC
FC
FC
FC
ENDCHAR
STARTCHAR 003B
ENCODING 59
SWIDTH 349 0
DWIDTH 16 0
BBX 6 31 5 -6
BITMAP
FC
FC
FC
FC
FC
FC
00
00
00
00
00
00
00
00
00
00
00
00
00
FC
FC
FC
FC
FC
FC
1C
1C
18
F8
F8
E0
ENDCHAR
STARTCHAR 003C
ENCODING 60
SWIDTH 632 0
DWIDTH 29 0
BBX 14 22 7 3
BITMAP
0020
0070
00F8
01FC
03F8
07F0
0FE0
1FC0
3F80
7F00
FE00
FE00
7F00
3F80
1FC0
0FE0
07F0
03F8
01FC
00F8
0070
0020
ENDCHAR
STARTCHAR 003D
ENCODING 61
SWIDTH 741 0
DWIDTH 34 0
BBX 24 13 5 10
BITMAP
FFFFFF
FFFFFF
FFFFFF
FFFFFF
000000
000000
000000
000000
000000
FFFFFF
FFFFFF
FFFFFF
FFFFFF
ENDCHAR
STARTCHAR 003E
ENCODING 62
SWIDTH 632 0
DWIDTH 29 0
BBX 14 22 8 3
BITMAP
1000
3800
7C00
FE00
7F00
3F80
0FC0
07E0
03F0
01F8
00FC
00FC
01F8
03F0
07E0
0FC0
1F80
7F00
FE00
7C00
3800
1000
ENDCHAR
STARTCHAR 003F
ENCODING 63
SWIDTH 545 0
DWIDTH 25 0
BBX 21 33 2 0
BITMAP
01FC00
07FF80
1FFFC0
3FFFE0
3FFFF0
7F87F0
7E03F8
7C01F8
FC01F8
0001F8
0001F8
0001F8
0003F0
0007F0
000FE0
001FE0
003FC0
007F80
007F00
00FE00
00FC00
01F800
01F800
01F800
000000
000000
000000
01F800
01F800
01F800
01F800
01F800
01F800
ENDCHAR
STARTCHAR 0040
ENCODING 64
SWIDTH 916 0
DWIDTH 42 0
BBX 34 34 4 -5
BITMAP
001FFE0000
00FFFFC000
01FFFFE000
07FFFFF800
0FF807FC00
1FC000FE00
1F80003F00
3E00001F00
7E03E01F80
7C0FFF8F80
783FFF8780
F83FFF87C0
F87F3F87C0
F87C0F87C0
F0F80F87C0
F0F80F83C0
F0F80F83C0
F0F80F87C0
F0F80F87C0
F0FC0F87C0
F87E1F87C0
F87FFFFF80
F83FFFFF80
7C1FFBFF00
7C0FF1FE00
3E00000000
3F00000000
1F80000000
0FE0000000
07FE1E0000
03FFFE0000
01FFFF0000
007FFF0000
000FFC0000
ENDCHAR
STARTCHAR 0041
ENCODING 65
SWIDTH 676 0
DWIDTH 31 0
BBX 29 33 1 0
BITMAP
003FE000
003FE000
003FE000
007FF000
007FF000
007FF000
00FDF000
00FDF800
00F9F800
01F8F800
01F8FC00
01F0FC00
03F07C00
03F07E00
03E07E00
07E07E00
07E03F00
07E03F00
0FC03F00
0FC01F80
0FC01F80
0FFFFF80
1FFFFFC0
1FFFFFC0
1FFFFFC0
3FFFFFC0
3F0007E0
3E0007E0
7E0003E0
7E0003F0
7C0003F0
FC0001F0
FC0001F8
ENDCHAR
STARTCHAR 0042
ENCODING 66
SWIDTH 632 0
DWIDTH 29 0
BBX 25 33 3 0
BITMAP
FFFF8000
FFFFE000
FFFFF000
FFFFF800
FFFFFC00
FC01FC00
FC00FE00
FC007E00
FC007E00
FC007E00
FC007E00
FC007E00
FC01FC00
FFFFFC00
FFFFF800
FFFFF000
FFFFFC00
FFFFFE00
FC00FE00
FC003F00
FC003F00
FC001F00
FC001F80
FC001F80
FC001F00
FC003F00
FC003F00
FC00FF00
FFFFFE00
FFFFFE00
FFFFFC00
FFFFF800
FFFFC000
ENDCHAR
STARTCHAR 0043
ENCODING 67
SWIDTH 741 0
DWIDTH 34 0
BBX 31 33 1 0
BITMAP
000FF000
007FFE00
01FFFF80
03FFFFE0
07FFFFF0
0FFC3FF0
1FE003F8
3F8001FC
3F8000FC
3F0000FE
7E00007C
7E000040
7E000000
7C000000
FC000000
FC000000
FC000000
FC000000
FC000000
7C000000
7E000000
7E000040
7E00007C
3F0000FE
3F0000FC
3F8001FC
1FE007F8
0FF83FF0
07FFFFF0
03FFFFE0
01FFFF80
007FFE00
000FF800
ENDCHAR
STARTCHAR 0044
ENCODING 68
SWIDTH 698 0
DWIDTH 32 0
BBX 27 33 3 0
BITMAP
FFFF0000
FFFFE000
FFFFF800
FFFFFC00
FFFFFE00
FC01FF00
FC007F00
FC003F80
FC001F80
FC000FC0
FC000FC0
FC000FC0
FC0007E0
FC0007E0
FC0007E0
FC0007E0
FC0007E0
FC0007E0
FC0007E0
FC0007E0
FC0007E0
FC000FC0
FC000FC0
FC000FC0
FC001F80
FC003F80
FC007F00
FC01FF00
FFFFFE00
FFFFFC00
FFFFF800
FFFFE000
FFFF0000
ENDCHAR
STARTCHAR 0045
ENCODING 69
SWIDTH 589 0
DWIDTH 27 0
BBX 22 33 3 0
BITMAP
FFFFFC
FFFFFC
FFFFFC
FFFFFC
FFFFFC
FC0000
FC0000
FC0000
FC0000
FC0000
FC0000
FC0000
FC0000
FFFFE0
FFFFE0
FFFFE0
FFFFE0
FFFFE0
FC0000
FC0000
FC0000
FC0000
FC0000
FC0000
FC0000
FC0000
FC0000
FC0000
FFFFFC
FFFFFC
FFFFFC
FFFFFC
FFFFFC
ENDCHAR
STARTCHAR 0046
ENCODING 70
SWIDTH 523 0
DWIDTH 24 0
BBX 20 33 3 0
BITMAP
FFFFF0
FFFFF0
FFFFF0
FFFFF0
FFFFF0
FFFFF0
FC0000
FC0000
FC0000
FC0000
FC0000
FC0000
FC0000
FFFF80
FFFF80
FFFF80
FFFF80
FFFF80
FFFF80
FC0000
FC0000
FC0000
FC0000
FC0000
FC0000
FC0000
FC0000
FC0000
FC0000
FC0000
FC0000
FC0000
FC0000
ENDCHAR
STARTCHAR 0047
ENCODING 71
SWIDTH 741 0
DWIDTH 34 0
BBX 31 33 1 0
BITMAP
000FF000
007FFE00
01FFFF80
03FFFFC0
07FFFFE0
0FFC3FF0
1FE007F8
3F8003F8
3F8001FC
3F0000FC
7E0000FC
7E000000
7E000000
7C000000
FC000000
FC000000
FC001FFE
FC001FFE
FC001FFE
7C001FFE
7E00007E
7E00007E
7E00007E
3F0000FC
3F8001FC
3F8001F8
1FE007F8
0FF81FF0
07FFFFE0
03FFFFC0
01FFFF80
007FFE00
000FF000
ENDCHAR
STARTCHAR 0048
ENCODING 72
SWIDTH 720 0
DWIDTH 33 0
BBX 27 33 3 0
BITMAP
FC0007E0
FC0007E0
FC0007E0
FC0007E0
FC0007E0
FC0007E0
FC0007E0
FC0007E0
FC0007E0
FC0007E0
FC0007E0
FC0007E0
FC0007E0
FC0007E0
FFFFFFE0
FFFFFFE0
FFFFFFE0
FFFFFFE0
FFFFFFE0
FC0007E0
FC0007E0
FC0007E0
FC0007E0
FC0007E0
FC0007E0
FC0007E0
FC0007E0
FC0007E0
FC0007E0
FC0007E0
FC0007E0
FC0007E0
FC0007E0
ENDCHAR
STARTCHAR 0049
ENCODING 73
SWIDTH 283 0
DWIDTH 13 0
BBX 5 33 4 0
BITMAP
F8
F8
F8
F8
F8
F8
F8
F8
F8
F8
F8
F8
F8
F8
F8
F8
F8
F8
F8
F8
F8
F8
F8
F8
F8
F8
F8
F8
F8
F8
F8
F8
F8
ENDCHAR
STARTCHAR 004A
ENCODING 74
SWIDTH 501 0
DWIDTH 23 0
BBX 19 33 0 0
BITMAP
0003E0
0003E0
0003E0
0003E0
0003E0
0003E0
0003E0
0003E0
0003E0
0003E0
0003E0
0003E0
0003E0
0003E0
0003E0
0003E0
0003E0
0003E0
0003E0
0003E0
0003E0
0003E0
0003E0
0003E0
0003E0
7C07E0
FE07E0
7F1FE0
7FFFC0
3FFFC0
1FFF80
0FFE00
03F800
ENDCHAR
STARTCHAR 004B
ENCODING 75
SWIDTH 654 0
DWIDTH 30 0
BBX 26 33 3 0
BITMAP
FC003F80
FC003F00
FC007F00
FC00FE00
FC01FC00
FC03F800
FC07F000
FC0FE000
FC0FC000
FC1F8000
FC3F0000
FC7F0000
FCFE0000
FDFC0000
FFF80000
FFF00000
FFF00000
FFF80000
FDFC0000
FDFC0000
FCFE0000
FC7F0000
FC3F8000
FC1FC000
FC0FE000
FC07F000
FC03F800
FC01FC00
FC00FE00
FC00FF00
FC007F00
FC003F80
FC001FC0
ENDCHAR
STARTCHAR 004C
ENCODING 76
SWIDTH 523 0
DWIDTH 24 0
BBX 20 33 4 0
BITMAP
F80000
F80000
F80000
F80000
F80000
F80000
F80000
F80000
F80000
F80000
F80000
F80000
F80000
F80000
F80000
F80000
F80000
F80000
F80000
F80000
F80000
F80000
F80000
F80000
F80000
F80000
F80000
F80000
FFFFF0
FFFFF0
FFFFF0
FFFFF0
FFFFF0
ENDCHAR
STARTCHAR 004D
ENCODING 77
SWIDTH 850 0
DWIDTH 39 0
BBX 33 33 3 0
BITMAP
F800000F80
FC00001F80
FC00001F80
FE00003F80
FE00003F80
FF00007F80
FF00007F80
FF8000FF80
FF8000FF80
FFC001FF80
FFC001FF80
FFE003FF80
FBE003FF80
FBF007EF80
F9F007EF80
F9F80FCF80
F8F80FCF80
F8FC1F8F80
F87C1F8F80
F87E3F0F80
F87E3F0F80
F83F3E0F80
F83F7E0F80
F81FFC0F80
F81FFC0F80
F80FF80F80
F80FF80F80
F807F00F80
F807F00F80
F803E00F80
F803E00F80
F801C00F80
F801C00F80
ENDCHAR
STARTCHAR 004E
ENCODING 78
SWIDTH 720 0
DWIDTH 33 0
BBX 27 33 3 0
BITMAP
FC0007E0
FE0007E0
FE0007E0
FF0007E0
FF8007E0
FF8007E0
FFC007E0
FFE007E0
FFE007E0
FFF007E0
FFF807E0
FDF807E0
FCFC07E0
FCFE07E0
FC7E07E0
FC3F07E0
FC3F87E0
FC1F87E0
FC0FC7E0
FC0FE7E0
FC07E7E0
FC03F7E0
FC03FFE0
FC01FFE0
FC00FFE0
FC00FFE0
FC007FE0
FC007FE0
FC003FE0
FC001FE0
FC001FE0
FC000FE0
FC0007E0
ENDCHAR
STARTCHAR 004F
ENCODING 79
SWIDTH 741 0
DWIDTH 34 0
BBX 32 33 1 0
BITMAP
000FF000
007FFE00
01FFFF80
03FFFFE0
07FFFFF0
0FF81FF0
1FE007F8
3F8001FC
3F8000FC
3F0000FE
7E00007E
7E00007E
7E00003F
7C00003F
FC00003F
FC00003F
FC00003F
FC00003F
FC00003F
7C00003F
7E00003F
7E00007E
7E00007E
3F0000FE
3F8000FC
3F8001FC
1FE003F8
0FF81FF8
07FFFFF0
03FFFFE0
01FFFF80
007FFF00
000FF800
ENDCHAR
STARTCHAR 0050
ENCODING 80
SWIDTH 632 0
DWIDTH 29 0
BBX 25 33 3 0
BITMAP
FFFFC000
FFFFF000
FFFFFC00
FFFFFE00
FFFFFE00
FC00FF00
FC003F00
FC001F80
FC001F80
FC001F80
FC001F80
FC001F80
FC001F80
FC001F80
FC003F00
FC00FF00
FFFFFE00
FFFFFE00
FFFFFC00
FFFFF800
FFFFE000
FC000000
FC000000
FC000000
FC000000
FC000000
FC000000
FC000000
FC000000
FC000000
FC000000
FC000000
FC000000
ENDCHAR
STARTCHAR 0051
ENCODING 81
SWIDTH 741 0
DWIDTH 34 0
BBX 32 33 1 0
BITMAP
000FF000
007FFE00
01FFFF80
03FFFFE0
07FFFFF0
0FF81FF0
1FE007F8
3F8001FC
3F8000FC
3F0000FE
7E00007E
7E00007E
7E00003F
7C00003F
FC00003F
FC00003F
FC00003F
FC00003F
FC00003F
7C00003F
7E00003F
7E00067E
7E000F7E
3F001FFE
3F801FFC
3F800FFC
1FE007F8
0FF81FF8
07FFFFFC
03FFFFFE
01FFFFFE
007FFE3C
000FF808
ENDCHAR
STARTCHAR 0052
ENCODING 82
SWIDTH 654 0
DWIDTH 30 0
BBX 25 33 3 0
BITMAP
FFFFC000
FFFFF000
FFFFFC00
FFFFFE00
FFFFFE00
FC00FF00
FC003F00
FC001F80
FC001F80
FC001F80
FC001F80
FC001F80
FC001F80
FC001F80
FC003F00
FC00FF00
FFFFFE00
FFFFFE00
FFFFFC00
FFFFF800
FFFFE000
FC03F000
FC03F000
FC01F800
FC01F800
FC00FC00
FC00FC00
FC007E00
FC007E00
FC007F00
FC003F00
FC003F80
FC001F80
ENDCHAR
STARTCHAR 0053
ENCODING 83
SWIDTH 654 0
DWIDTH 30 0
BBX 26 33 2 0
BITMAP
007F8000
03FFF000
0FFFFC00
1FFFFE00
3FFFFF00
3FC1FF00
7F007F80
7E001F80
7E001FC0
7E000FC0
7E000000
7F000000
3FC00000
3FFC0000
1FFFC000
0FFFF800
03FFFE00
007FFF00
000FFF80
0000FFC0
00001FC0
00000FC0
3C000FC0
FC0007C0
FE000FC0
FE000FC0
7F801FC0
3FE0FF80
3FFFFF80
1FFFFF00
07FFFC00
03FFF800
007FC000
ENDCHAR
STARTCHAR 0054
ENCODING 84
SWIDTH 610 0
DWIDTH 28 0
BBX 27 33 0 0
BITMAP
FFFFFFE0
FFFFFFE0
FFFFFFE0
FFFFFFE0
FFFFFFE0
001F8000
001F8000
001F8000
001F8000
001F8000
001F8000
001F8000
001F8000
001F8000
001F8000
001F8000
001F8000
001F8000
001F8000
001F8000
001F8000
001F8000
001F8000
001F8000
001F8000
001F8000
001F8000
001F8000
001F8000
001F8000
001F8000
001F8000
001F8000
ENDCHAR
STARTCHAR 0055
ENCODING 85
SWIDTH 720 0
DWIDTH 33 0
BBX 27 33 3 0
BITMAP
FC0007E0
FC0007E0
FC0007E0
FC0007E0
FC0007E0
FC0007E0
FC0007E0
FC0007E0
FC0007E0
FC0007E0
FC0007E0
FC0007E0
FC0007E0
FC0007E0
FC0007E0
FC0007E0
FC0007E0
FC0007E0
FC0007E0
FC0007E0
FC0007E0
FC0007E0
FC0007E0
7E000FC0
7E000FC0
7F001FC0
3F803F80
3FE0FF80
1FFFFF00
0FFFFE00
07FFFC00
01FFF000
003FC000
ENDCHAR
STARTCHAR 0056
ENCODING 86
SWIDTH 632 0
DWIDTH 29 0
BBX 29 33 0 0
BITMAP
FC0001F8
7C0001F8
7E0001F0
7E0003F0
3E0003F0
3F0003E0
3F0007E0
1F0007E0
1F8007C0
1F800FC0
0F800FC0
0FC00FC0
0FC01F80
0FC01F80
07C01F80
07E03F00
07E03F00
03E03F00
03F03E00
03F07E00
01F07E00
01F87C00
01F8FC00
00F8FC00
00FCF800
00FDF800
007DF800
007FF000
007FF000
003FF000
003FF000
003FE000
003FE000
ENDCHAR
STARTCHAR 0057
ENCODING 87
SWIDTH 981 0
DWIDTH 45 0
BBX 43 33 1 0
BITMAP
F8003F0007E0
FC003F8007E0
FC003F8007C0
7C007F800FC0
7E007FC00FC0
7E007FC00FC0
7E007FC00F80
3E00FFC01F80
3F00FFE01F80
3F00FFE01F00
1F00FBE03F00
1F81FBE03F00
1F81FBF03F00
1F81F3F03E00
0F83F1F07E00
0FC3F1F87E00
0FC3E1F87C00
07C3E0F87C00
07C7E0F8FC00
07E7E0FCF800
07E7C0FCF800
03E7C07DF800
03FFC07DF800
03FF807FF000
01FF803FF000
01FF803FF000
01FF003FE000
00FF001FE000
00FF001FE000
00FF001FE000
00FE001FC000
007E000FC000
007E000FC000
ENDCHAR
STARTCHAR 0058
ENCODING 88
SWIDTH 654 0
DWIDTH 30 0
BBX 28 33 1 0
BITMAP
FE0007F0
7F0007E0
7F000FE0
3F801FC0
1F801F80
1FC03F80
0FE07F00
07E07E00
07F0FE00
03F9FC00
01F9F800
01FFF800
00FFF000
007FE000
007FE000
003FC000
001FC000
003FC000
007FE000
00FFF000
00FFF000
01FFF800
01F9FC00
03F0FC00
07F0FE00
0FE07F00
0FC03F00
1FC03F80
3F801FC0
3F800FC0
7F000FE0
FE0007F0
FE0007F0
ENDCHAR
STARTCHAR 0059
ENCODING 89
SWIDTH 610 0
DWIDTH 28 0
BBX 28 33 0 0
BITMAP
FE0007F0
7E0007E0
7F000FE0
3F000FC0
1F801F80
1FC03F80
0FC03F00
0FE07F00
07E07E00
07F0FE00
03F8FC00
01F9F800
01FFF800
00FFF000
00FFF000
007FE000
007FE000
003FC000
001F8000
001F8000
001F8000
001F8000
001F8000
001F8000
001F8000
001F8000
001F8000
001F8000
001F8000
001F8000
001F8000
001F8000
001F8000
ENDCHAR
STARTCHAR 005A
ENCODING 90
SWIDTH 654 0
DWIDTH 30 0
BBX 26 33 2 0
BITMAP
7FFFFFC0
7FFFFFC0
7FFFFF80
7FFFFF00
7FFFFF00
0000FE00
0000FE00
0001FC00
0001FC00
0003F800
0007F000
0007F000
000FE000
000FE000
001FC000
003F8000
003F8000
007F0000
007F0000
00FE0000
01FC0000
01FC0000
03F80000
03F80000
07F00000
0FE00000
0FE00000
1FC00000
1FFFFFC0
3FFFFFC0
7FFFFFC0
7FFFFFC0
FFFFFFC0
ENDCHAR
STARTCHAR 005B
ENCODING 91
SWIDTH 414 0
DWIDTH 19 0
BBX 10 51 6 -10
BITMAP
FFC0
FFC0
FFC0
FFC0
FFC0
F800
F800
F800
F800
F800
F800
F800
F800
F800
F800
F800
F800
F800
F800
F800
F800
F800
F800
F800
F800
F800
F800
F800
F800
F800
F800
F800
F800
F800
F800
F800
F800
F800
F800
F800
F800
F800
F800
F800
F800
F800
FFC0
FFC0
FFC0
FFC0
FFC0
ENDCHAR
STARTCHAR 005C
ENCODING 92
SWIDTH 436 0
DWIDTH 20 0
BBX 14 33 3 0
BITMAP
F800
FC00
FC00
7C00
7C00
7E00
7E00
3E00
3F00
3F00
1F00
1F00
1F80
1F80
0F80
0F80
0FC0
0FC0
07C0
07C0
07E0
07E0
03E0
03F0
03F0
01F0
01F0
01F8
01F8
00F8
00F8
00FC
00FC
ENDCHAR
STARTCHAR 005D
ENCODING 93
SWIDTH 414 0
DWIDTH 19 0
BBX 10 51 3 -10
BITMAP
FFC0
FFC0
FFC0
FFC0
FFC0
07C0
07C0
07C0
07C0
07C0
07C0
07C0
07C0
07C0
07C0
07C0
07C0
07C0
07C0
07C0
07C0
07C0
07C0
07C0
07C0
07C0
07C0
07C0
07C0
07C0
07C0
07C0
07C0
07C0
07C0
07C0
07C0
07C0
07C0
07C0
07C0
07C0
07C0
07C0
07C0
07C0
FFC0
FFC0
FFC0
FFC0
FFC0
ENDCHAR
STARTCHAR 005E
ENCODING 94
SWIDTH 676 0
DWIDTH 31 0
BBX 21 14 5 20
BITMAP
002000
007000
00F800
01FC00
03FE00
07FF00
0FFF80
1FCFC0
3F87E0
7F03F0
FE01F8
FC00F8
780070
300060
ENDCHAR
STARTCHAR 005F
ENCODING 95
SWIDTH 654 0
DWIDTH 30 0
BBX 30 4 0 -5
BITMAP
FFFFFFFC
FFFFFFFC
FFFFFFFC
FFFFFFFC
ENDCHAR
STARTCHAR 0060
ENCODING 96
SWIDTH 545 0
DWIDTH 25 0
BBX 7 8 8 37
BITMAP
F0
F0
F8
78
7C
3C
3C
1E
ENDCHAR
STARTCHAR 0061
ENCODING 97
SWIDTH 567 0
DWIDTH 26 0
BBX 22 25 2 0
BITMAP
01FE00
07FFC0
1FFFE0
3FFFF0
3FFFF8
7F83F8
7E01F8
0C00FC
0000FC
003FFC
07FFFC
1FFFFC
3FFFFC
7FF8FC
FF00FC
FC00FC
F800FC
F801FC
F803FC
FC07FC
FF3FFC
7FFF7C
3FFE7C
1FFC7C
07F000
ENDCHAR
STARTCHAR 0062
ENCODING 98
SWIDTH 610 0
DWIDTH 28 0
BBX 23 33 3 0
BITMAP
FC0000
FC0000
FC0000
FC0000
FC0000
FC0000
FC0000
FC0000
FCFE00
FFFFC0
FFFFE0
FFFFF0
FFFFF8
FF03FC
FE01FC
FC00FE
FC007E
F8007E
F8007E
F8007E
F8003E
F8007E
F8007E
F8007E
FC007E
FC00FE
FE01FC
FF03FC
FFFFF8
FFFFF0
FFFFE0
FBFFC0
F8FE00
ENDCHAR
STARTCHAR 0063
ENCODING 99
SWIDTH 567 0
DWIDTH 26 0
BBX 23 25 2 0
BITMAP
00FF00
03FFC0
0FFFF0
1FFFF8
3FFFFC
3FC3FC
7F00FE
7E007E
FC0070
FC0000
FC0000
FC0000
FC0000
FC0000
FC0000
FC0000
FC0060
7E007E
7F00FE
3FC3FC
3FFFF8
1FFFF8
0FFFF0
03FFC0
00FF00
ENDCHAR
STARTCHAR 0064
ENCODING 100
SWIDTH 610 0
DWIDTH 28 0
BBX 23 33 2 0
BITMAP
00007E
00007E
00007E
00007E
00007E
00007E
00007E
00007E
00FE7E
03FFFE
0FFFFE
1FFFFE
3FFFFE
3F81FE
7F00FE
7E007E
FC007E
FC003E
FC003E
FC003E
FC003E
FC003E
FC003E
FC003E
FC003E
7E007E
7F00FE
3F81FE
3FFFFE
1FFFFE
0FFFFE
07FFBE
00FE3E
ENDCHAR
STARTCHAR 0065
ENCODING 101
SWIDTH 610 0
DWIDTH 28 0
BBX 24 25 2 0
BITMAP
00FF00
03FFC0
0FFFF0
1FFFF8
3FFFF8
3F80FC
7F007E
7E007E
FC003E
FC003E
FFFFFF
FFFFFF
FFFFFF
FFFFFF
FC0000
FC0000
FC0000
7E0078
7F00FE
3FC3FE
3FFFFC
1FFFF8
0FFFF0
03FFC0
007F00
ENDCHAR
STARTCHAR 0066
ENCODING 102
SWIDTH 370 0
DWIDTH 17 0
BBX 16 33 1 0
BITMAP
00FF
01FF
03FF
07FF
07FF
0FC0
0FC0
0FC0
FFFF
FFFF
FFFF
FFFF
0FC0
0FC0
0FC0
0FC0
0FC0
0FC0
0FC0
0FC0
0FC0
0FC0
0FC0
0FC0
0FC0
0FC0
0FC0
0FC0
0FC0
0FC0
0FC0
0FC0
0FC0
ENDCHAR
STARTCHAR 0067
ENCODING 103
SWIDTH 610 0
DWIDTH 28 0
BBX 23 36 2 -11
BITMAP
00FE3E
03FFFE
0FFFFE
1FFFFE
3FFFFE
3F81FE
7F00FE
7E007E
FC007E
FC003E
FC003E
FC003E
FC003E
FC003E
FC003E
FC003E
FC003E
7E007E
7F00FE
3F81FE
3FFFFE
1FFFFE
0FFFFE
07FFFE
00FE7E
00007E
00007E
00007E
02007E
0F00FE
3FC7FC
3FFFFC
1FFFF8
0FFFF0
03FFE0
00FF00
ENDCHAR
STARTCHAR 0068
ENCODING 104
SWIDTH 632 0
DWIDTH 29 0
BBX 23 33 3 0
BITMAP
F80000
F80000
F80000
F80000
F80000
F80000
F80000
F80000
F87F80
F9FFE0
FBFFF0
FFFFF8
FFFFF8
FF83FC
FF01FC
FE00FC
FC007E
FC007E
FC007E
FC007E
FC007E
FC007E
FC007E
FC007E
FC007E
FC007E
FC007E
FC007E
FC007E
FC007E
FC007E
FC007E
FC007E
ENDCHAR
STARTCHAR 0069
ENCODING 105
SWIDTH 283 0
DWIDTH 13 0
BBX 5 33 4 0
BITMAP
F8
F8
F8
F8
F8
00
00
00
F8
F8
F8
F8
F8
F8
F8
F8
F8
F8
F8
F8
F8
F8
F8
F8
F8
F8
F8
F8
F8
F8
F8
F8
F8
ENDCHAR
STARTCHAR 006A
ENCODING 106
SWIDTH 283 0
DWIDTH 13 0
BBX 10 44 0 -11
BITMAP
0FC0
0FC0
0FC0
0FC0
0FC0
0000
0000
0000
0FC0
0FC0
0FC0
0FC0
0FC0
0FC0
0FC0
0FC0
0FC0
0FC0
0FC0
0FC0
0FC0
0FC0
0FC0
0FC0
0FC0
0FC0
0FC0
0FC0
0FC0
0FC0
0FC0
0FC0
0FC0
0FC0
0FC0
0FC0
0FC0
0FC0
1FC0
FFC0
FF80
FF80
FF00
FC00
ENDCHAR
STARTCHAR 006B
ENCODING 107
SWIDTH 545 0
DWIDTH 25 0
BBX 22 33 3 0
BITMAP
FC0000
FC0000
FC0000
FC0000
FC0000
FC0000
FC0000
FC0000
FC03F8
FC03F8
FC07F0
FC0FE0
FC1FC0
FC1FC0
FC3F80
FC7F00
FCFE00
FCFC00
FDFC00
FFF800
FFF000
FFF800
FDFC00
FCFE00
FC7E00
FC7F00
FC3F80
FC1FC0
FC0FE0
FC0FF0
FC07F0
FC03F8
FC01FC
ENDCHAR
STARTCHAR 006C
ENCODING 108
SWIDTH 283 0
DWIDTH 13 0
BBX 5 33 4 0
BITMAP
F8
F8
F8
F8
F8
F8
F8
F8
F8
F8
F8
F8
F8
F8
F8
F8
F8
F8
F8
F8
F8
F8
F8
F8
F8
F8
F8
F8
F8
F8
F8
F8
F8
ENDCHAR
STARTCHAR 006D
ENCODING 109
SWIDTH 894 0
DWIDTH 41 0
BBX 35 25 3 0
BITMAP
F87E00FC00
F9FF83FF00
FBFFC7FF80
FFFFEFFFC0
FFFFFFFFE0
FF07FE0FE0
FE03FC07E0
FC01F807E0
FC01F803E0
FC01F803E0
FC01F803E0
FC01F803E0
FC01F803E0
FC01F803E0
FC01F803E0
FC01F803E0
FC01F803E0
FC01F803E0
FC01F803E0
FC01F803E0
FC01F803E0
FC01F803E0
FC01F803E0
FC01F803E0
FC01F803E0
ENDCHAR
STARTCHAR 006E
ENCODING 110
SWIDTH 632 0
DWIDTH 29 0
BBX 23 26 3 0
BITMAP
003F80
F9FFE0
FBFFF0
FFFFF8
FFFFF8
FFC7FC
FF01FC
FE00FC
FE00FE
FC007E
FC007E
FC007E
FC007E
FC007E
FC007E
FC007E
FC007E
FC007E
FC007E
FC007E
FC007E
FC007E
FC007E
FC007E
FC007E
FC007E
ENDCHAR
STARTCHAR 006F
ENCODING 111
SWIDTH 610 0
DWIDTH 28 0
BBX 24 25 2 0
BITMAP
00FF00
03FFC0
0FFFF0
1FFFF8
3FFFFC
3FC3FE
7F00FE
7E007F
FC003F
FC003F
FC003F
FC003F
FC001F
FC001F
FC003F
FC003F
FC003F
7E007F
7F00FE
3FC3FE
3FFFFC
1FFFF8
0FFFF0
03FFC0
00FF00
ENDCHAR
STARTCHAR 0070
ENCODING 112
SWIDTH 610 0
DWIDTH 28 0
BBX 23 35 3 -10
BITMAP
F87E00
FBFFC0
FFFFE0
FFFFF0
FFFFF8
FF03FC
FE01FC
FC00FE
FC007E
F8007E
F8007E
F8007E
F8003E
F8007E
F8007E
F8007E
FC007E
FC00FE
FE01FC
FF03FC
FFFFF8
FFFFF0
FFFFE0
FFFFC0
FC7E00
FC0000
FC0000
FC0000
FC0000
FC0000
FC0000
FC0000
FC0000
FC0000
FC0000
ENDCHAR
STARTCHAR 0071
ENCODING 113
SWIDTH 610 0
DWIDTH 28 0
BBX 23 35 2 -10
BITMAP
00FE3E
03FFFE
0FFFFE
1FFFFE
3FFFFE
3F81FE
7F00FE
7E007E
FC007E
FC003E
FC003E
FC003E
FC003E
FC003E
FC003E
FC003E
FC003E
7E007E
7F00FE
3F81FE
3FFFFE
1FFFFE
0FFFFE
07FFFE
00FE7E
00007E
00007E
00007E
00007E
00007E
00007E
00007E
00007E
00007E
00007E
ENDCHAR
STARTCHAR 0072
ENCODING 114
SWIDTH 392 0
DWIDTH 18 0
BBX 14 25 3 0
BITMAP
F87C
F9FC
FBFC
FFFC
FFFC
FFC0
FF00
FE00
FE00
FC00
FC00
FC00
FC00
FC00
FC00
FC00
FC00
FC00
FC00
FC00
FC00
FC00
FC00
FC00
FC00
ENDCHAR
STARTCHAR 0073
ENCODING 115
SWIDTH 545 0
DWIDTH 25 0
BBX 21 25 2 0
BITMAP
01FC00
0FFF80
1FFFC0
3FFFE0
7FFFF0
7E07F0
7C03F8
7C01E0
7E0000
7F8000
3FF800
3FFF00
0FFFC0
01FFF0
003FF0
0003F8
0001F8
FC01F8
FE01F8
FF03F8
7FFFF0
3FFFF0
1FFFE0
0FFF80
01FE00
ENDCHAR
STARTCHAR 0074
ENCODING 116
SWIDTH 436 0
DWIDTH 20 0
BBX 18 32 0 -1
BITMAP
07C000
07C000
07C000
07C000
07C000
07C000
07C000
FFFFC0
FFFFC0
FFFFC0
FFFFC0
07C000
07C000
07C000
07C000
07C000
07C000
07C000
07C000
07C000
07C000
07C000
07C000
07C000
07E000
07E000
07F000
07FFC0
03FFC0
01FFC0
00FFC0
003FC0
ENDCHAR
STARTCHAR 0075
ENCODING 117
SWIDTH 632 0
DWIDTH 29 0
BBX 22 26 3 -1
BITMAP
F8007C
F8007C
F8007C
F8007C
F8007C
F8007C
F8007C
F8007C
F8007C
F8007C
F8007C
F8007C
F8007C
F8007C
F8007C
FC007C
FC00FC
FC00FC
FE00FC
FE01FC
7F87FC
7FFFFC
3FFFFC
1FFFBC
0FFE3C
03F800
ENDCHAR
STARTCHAR 0076
ENCODING 118
SWIDTH 545 0
DWIDTH 25 0
BBX 23 25 1 0
BITMAP
FC003E
FC007E
7C007E
7E007C
3E00FC
3E00F8
3F00F8
1F01F8
1F01F0
1F81F0
0F83F0
0F83E0
0FC3E0
07C7E0
07C7C0
07E7C0
03EFC0
03EF80
01FF80
01FF00
01FF00
00FF00
00FE00
00FE00
007E00
ENDCHAR
STARTCHAR 0077
ENCODING 119
SWIDTH 807 0
DWIDTH 37 0
BBX 35 25 1 0
BITMAP
F801F007E0
FC01F007C0
7C03F007C0
7C03F80FC0
7E03F80FC0
3E07F80F80
3E07FC1F80
3F07FC1F80
3F0FBC1F00
1F0FBE1F00
1F0FBE3F00
1F8F1E3E00
0F9F1F3E00
0F9F1F7E00
0FDE0F7C00
07FE0F7C00
07FE0FFC00
07FC07FC00
07FC07F800
03FC07F800
03F803F800
03F803F000
01F803F000
01F003F000
01F001E000
ENDCHAR
STARTCHAR 0078
ENCODING 120
SWIDTH 545 0
DWIDTH 25 0
BBX 24 25 1 0
BITMAP
FE007E
7E00FE
7F01FC
3F81F8
1F83F0
0FC7F0
0FE7E0
07EFC0
03FFC0
03FF80
01FF00
00FE00
00FE00
00FF00
01FF00
03FF80
03FFC0
07EFE0
0FE7E0
1FC3F0
1F83F8
3F01F8
7F00FC
7E00FE
FC007F
ENDCHAR
STARTCHAR 0079
ENCODING 121
SWIDTH 567 0
DWIDTH 26 0
BBX 24 36 1 -11
BITMAP
F8001F
FC003F
7C003E
7E003E
7E007E
3E007C
3F00FC
1F00FC
1F80F8
1F81F8
0F81F0
0FC1F0
07C3F0
07E3E0
07E7E0
03E7C0
03F7C0
01FFC0
01FF80
01FF80
00FF80
00FF00
007F00
007E00
007E00
007E00
007C00
00FC00
00F800
00F800
01F800
01F000
01F000
03F000
03E000
03E000
ENDCHAR
STARTCHAR 007A
ENCODING 122
SWIDTH 523 0
DWIDTH 24 0
BBX 22 25 1 0
BITMAP
7FFFFC
7FFFF8
7FFFF0
7FFFF0
7FFFE0
0007C0
000FC0
001F80
001F00
003F00
007E00
007C00
00FC00
01F800
03F000
03F000
07E000
0FC000
0FC000
1F8000
3FFFF8
3FFFF8
7FFFF8
FFFFF8
FFFFF8
ENDCHAR
STARTCHAR 007B
ENCODING 123
SWIDTH 458 0
DWIDTH 21 0
BBX 13 51 6 -10
BITMAP
03F8
07F8
0FF8
0FF8
1FF8
1F80
1F00
1F00
1F00
1F00
1F00
1F00
1F00
1F00
1F00
1F00
1F00
1F00
1F00
1F00
1F00
1F00
3F00
7E00
7E00
FC00
7E00
7F00
3F00
1F00
1F00
1F00
1F00
1F00
1F00
1F00
1F00
1F00
1F00
1F00
1F00
1F00
1F00
1F00
1F00
1F80
1FF8
0FF8
0FF8
07F8
01F8
ENDCHAR
STARTCHAR 007C
ENCODING 124
SWIDTH 305 0
DWIDTH 14 0
BBX 6 33 4 0
BITMAP
FC
FC
FC
FC
FC
FC
FC
FC
FC
FC
FC
FC
FC
FC
FC
FC
FC
FC
FC
FC
FC
FC
FC
FC
FC
FC
FC
FC
FC
FC
FC
FC
FC
ENDCHAR
STARTCHAR 007D
ENCODING 125
SWIDTH 458 0
DWIDTH 21 0
BBX 12 51 2 -10
BITMAP
FC00
FF00
FF00
FF80
FF80
0F80
0F80
0F80
0F80
0F80
0F80
0F80
0F80
0F80
0F80
0F80
0F80
0F80
0F80
0F80
0F80
0FC0
07E0
07E0
03F0
03F0
03F0
07E0
07E0
0FC0
0F80
0F80
0F80
0F80
0F80
0F80
0F80
0F80
0F80
0F80
0F80
0F80
0F80
0F80
0F80
1F80
FF80
FF80
FF00
FE00
FC00
ENDCHAR
STARTCHAR 007E
ENCODING 126
SWIDTH 720 0
DWIDTH 33 0
BBX 23 11 5 9
BITMAP
060000
3FC07C
7FE03E
7FF83E
FFFE7E
FFFFFE
FCFFFC
F83FFC
F81FFC
F807F8
0001E0
ENDCHAR
STARTCHAR 00A0
ENCODING 160
SWIDTH 196 0
DWIDTH 9 0
BBX 0 0 0 0
BITMAP
ENDCHAR
STARTCHAR 00A1
ENCODING 161
SWIDTH 370 0
DWIDTH 17 0
BBX 6 33 5 -8
BITMAP
FC
FC
FC
FC
FC
00
00
00
FC
FC
FC
FC
FC
FC
FC
FC
FC
FC
FC
FC
FC
FC
FC
FC
FC
FC
FC
FC
FC
FC
FC
FC
FC
ENDCHAR
STARTCHAR 00A2
ENCODING 162
SWIDTH 567 0
DWIDTH 26 0
BBX 23 34 2 -1
BITMAP
003C00
003C00
003C00
003C00
007E00
03FFC0
07FFE0
1FFFF8
1FFFF8
3FC7FC
7F01FC
7E00FE
FE0078
FC0040
FC0000
FC0000
FC0000
FC0000
FC0000
FC0000
FC0000
FC0060
7E007E
7F00FE
3F81FC
3FFFFC
1FFFF8
0FFFF0
07FFE0
01FF80
003C00
003C00
003C00
003C00
ENDCHAR
STARTCHAR 00A3
ENCODING 163
SWIDTH 567 0
DWIDTH 26 0
BBX 22 33 2 0
BITMAP
003F00
00FFC0
03FFE0
03FFF0
07FFF8
0FF1F8
0FC0FC
0FC0FC
0F8078
0F8040
0F8000
0F8000
0F8000
0F8000
FFFF00
FFFF00
FFFF00
FFFF00
FFFF00
0F8000
0F8000
0F8000
0F8000
0F8000
0F8000
0F8000
1F8000
3F8000
FFFFF0
FFFFF0
FFFFF0
FFFFF0
FFFFF0
ENDCHAR
STARTCHAR 00A4
ENCODING 164
SWIDTH 676 0
DWIDTH 31 0
BBX 27 27 2 3
BITMAP
30000180
781E03C0
FCFFE7E0
FFFFFFE0
7FFFFFC0
3FFFFF80
1FE0FF00
1F803F00
3F001F00
3E000F80
3E000F80
7C000F80
7C000780
7C000780
7C000780
7C000F80
3E000F80
3E000F80
3F001F00
1F803F00
1FE0FF00
3FFFFF80
7FFFFFC0
FFFFFFE0
FCFFE7E0
781E03C0
30000180
ENDCHAR
STARTCHAR 00A5
ENCODING 165
SWIDTH 610 0
DWIDTH 28 0
BBX 28 33 0 0
BITMAP
FE0007F0
7E0007E0
7F000FE0
3F000FC0
1F801F80
1FC03F80
0FC03F00
0FE07F00
07E07E00
07F0FE00
03F0FC00
01F9F800
01FFF800
00FFF000
00FFF000
007FE000
007FE000
07FFFE00
07FFFE00
07FFFE00
07FFFE00
001F8000
001F8000
001F8000
07FFFE00
07FFFE00
07FFFE00
07FFFE00
001F8000
001F8000
001F8000
001F8000
001F8000
ENDCHAR
STARTCHAR 00A6
ENCODING 166
SWIDTH 305 0
DWIDTH 14 0
BBX 6 42 4 -9
BITMAP
FC
FC
FC
FC
FC
FC
FC
FC
FC
FC
FC
FC
FC
FC
FC
FC
FC
FC
FC
00
00
00
00
00
FC
FC
FC
FC
FC
FC
FC
FC
FC
FC
FC
FC
FC
FC
FC
FC
FC
FC
ENDCHAR
STARTCHAR 00A7
ENCODING 167
SWIDTH 545 0
DWIDTH 25 0
BBX 21 38 2 -7
BITMAP
00F000
07FE00
1FFF80
3FFFC0
7FFFC0
7F0FE0
7C07E0
7C03E0
7C0200
7F0000
7FC000
3FFC00
1FFF80
0FFFC0
1FFFF0
3F3FF0
7E07F8
FC01F8
FC01F8
FC01F8
FE01F8
7FC3F0
7FFFF0
3FFFE0
0FFFC0
03FFE0
007FF0
0007F0
0003F0
3C01F8
FE01F0
7E03F0
7F87F0
3FFFF0
3FFFE0
1FFFC0
07FF80
00FC00
ENDCHAR
STARTCHAR 00A8
ENCODING 168
SWIDTH 567 0
DWIDTH 26 0
BBX 15 5 5 37
BITMAP
FC3E
FC3E
FC3E
FC3E
FC3E
ENDCHAR
STARTCHAR 00A9
ENCODING 169
SWIDTH 894 0
DWIDTH 41 0
BBX 38 38 1 -3
BITMAP
0003FF0000
001FFFE000
003FFFF800
00FFFFFC00
01FFFFFF00
03FF01FF80
07F8003FC0
0FE0001FE0
1FC0000FE0
1F80FE07F0
3F03FF83F0
3F07FFC1F8
7E0FFFE1F8
7E0FC3E0F8
7C1F01F0FC
7C1F01C07C
7C1E00007C
FC1E00007C
FC1E00007C
FC1E00007C
FC1E00007C
7C1E00007C
7C1F01C07C
7C1F01F0FC
7E0FC3E0F8
7E0FFFE1F8
3F07FFC1F8
3F03FF83F0
1F80FE07F0
1FC0000FE0
0FF0001FC0
07F8007FC0
03FF03FF80
01FFFFFF00
00FFFFFC00
003FFFF800
000FFFE000
0001FF0000
ENDCHAR
STARTCHAR 00AA
ENCODING 170
SWIDTH 327 0
DWIDTH 15 0
BBX 11 13 2 12
BITMAP
3F80
7FC0
FBC0
60E0
03E0
3FE0
7FE0
F0E0
E1E0
E1E0
FFE0
7FE0
0EE0
ENDCHAR
STARTCHAR 00AB
ENCODING 171
SWIDTH 589 0
DWIDTH 27 0
BBX 20 20 4 2
BITMAP
0180C0
03C0E0
07C1F0
0783E0
0F87C0
1F0F80
3E0F00
3C1F00
7C3E00
F87C00
F83C00
7C3E00
3E1F00
1E0F80
1F07C0
0F87C0
07C3E0
03E1F0
01C0E0
010040
ENDCHAR
STARTCHAR 00AC
ENCODING 172
SWIDTH 610 0
DWIDTH 28 0
BBX 22 9 3 9
BITMAP
FFFFFC
FFFFFC
FFFFFC
FFFFFC
00007C
00007C
00007C
00007C
00007C
ENDCHAR
STARTCHAR 00AD
ENCODING 173
SWIDTH 414 0
DWIDTH 19 0
BBX 14 4 3 12
BITMAP
FFFC
FFFC
FFFC
FFFC
ENDCHAR
STARTCHAR 00AE
ENCODING 174
SWIDTH 654 0
DWIDTH 30 0
BBX 24 24 3 12
BITMAP
00FE00
03FFC0
07FFE0
1FFFF8
1F00F8
3E007C
7CFE3E
78FF1E
70C30E
F0C38F
F0C30F
F0FF0F
F0FE0F
F0C60F
70C60E
78C31E
7CC33E
3C003C
3E00FC
1F81F8
0FFFF0
07FFE0
01FF80
003C00
ENDCHAR
STARTCHAR 00AF
ENCODING 175
SWIDTH 501 0
DWIDTH 23 0
BBX 13 4 5 39
BITMAP
FFF8
FFF8
FFF8
FFF8
ENDCHAR
STARTCHAR 00B0
ENCODING 176
SWIDTH 458 0
DWIDTH 21 0
BBX 17 16 1 17
BITMAP
03E000
0FF800
1FFE00
3FFE00
7FFF00
7C1F00
7C0F80
F80F80
F80F80
F80F80
7C1F00
7FFF00
3FFE00
1FFE00
0FF800
03F000
ENDCHAR
STARTCHAR 00B1
ENCODING 177
SWIDTH 610 0
DWIDTH 28 0
BBX 22 22 3 3
BITMAP
007800
007800
007800
007800
007800
FFFFFC
FFFFFC
FFFFFC
FFFFFC
007800
007800
007800
007800
007800
007800
000000
000000
000000
FFFFFC
FFFFFC
FFFFFC
FFFFFC
ENDCHAR
STARTCHAR 00B2
ENCODING 178
SWIDTH 414 0
DWIDTH 19 0
BBX 15 21 2 12
BITMAP
07C0
1FF0
3FF8
7EFC
783C
F01C
F01E
001E
003C
003C
007C
01F8
03F0
07E0
0F80
1F00
3E00
7C00
FFFE
FFFE
FFFE
ENDCHAR
STARTCHAR 00B3
ENCODING 179
SWIDTH 414 0
DWIDTH 19 0
BBX 14 21 2 12
BITMAP
7FF8
7FF8
7FF8
0078
00F0
01E0
03C0
0F80
1FC0
0FF0
0FF8
00F8
0038
003C
003C
003C
F078
F8F8
7FF8
3FF0
1FC0
ENDCHAR
STARTCHAR 00B4
ENCODING 180
SWIDTH 545 0
DWIDTH 25 0
BBX 7 8 10 37
BITMAP
1E
3E
3C
3C
78
78
F8
F0
ENDCHAR
STARTCHAR 00B5
ENCODING 181
SWIDTH 632 0
DWIDTH 29 0
BBX 23 36 3 -11
BITMAP
FC007E
FC007E
FC007E
FC007E
FC007E
FC007E
FC007E
FC007E
FC007E
FC007E
FC007E
FC007E
FC007E
FC007E
FC007E
FC007E
FC007E
FE007E
FE00FE
FF01FE
FFC7FE
FFFFFE
FFFFFE
FFFFBE
FFFF3E
F9FC00
F80000
F80000
F80000
F80000
F80000
F80000
F80000
F80000
F80000
F80000
ENDCHAR
STARTCHAR 00B6
ENCODING 182
SWIDTH 720 0
DWIDTH 33 0
BBX 29 39 2 -6
BITMAP
01FFE1F8
07FFE1F8
1FFFE1F8
3FFFE1F8
3FFFE1F8
7FFFE1F8
7FFFE1F8
7FFFE1F8
FFFFE1F8
FFFFE1F8
FFFFE1F8
FFFFE1F8
FFFFE1F8
FFFFE1F8
7FFFE1F8
7FFFE1F8
7FFFE1F8
3FFFE1F8
1FFFE1F8
0FFFE1F8
03FFE1F8
0007E1F8
0007E1F8
0007E1F8
0007E1F8
0007E1F8
0007E1F8
0007E1F8
0007E1F8
0007E1F8
0007E1F8
0007E1F8
0007E1F8
0007E1F8
0007E1F8
0007E1F8
0007E1F8
0007E1F8
0007E1F8
ENDCHAR
STARTCHAR 00B7
ENCODING 183
SWIDTH 261 0
DWIDTH 12 0
BBX 6 7 3 11
BITMAP
30
FC
FC
FC
FC
FC
78
ENDCHAR
STARTCHAR 00B8
ENCODING 184
SWIDTH 414 0
DWIDTH 19 0
BBX 7 12 6 -11
BITMAP
38
38
78
7C
7E
3E
0E
1E
FE
FE
FC
F8
ENDCHAR
STARTCHAR 00B9
ENCODING 185
SWIDTH 349 0
DWIDTH 16 0
BBX 7 21 3 12
BITMAP
1E
7E
FE
FE
EE
8E
0E
0E
0E
0E
0E
0E
0E
0E
0E
0E
0E
0E
0E
0E
0E
ENDCHAR
STARTCHAR 00BA
ENCODING 186
SWIDTH 349 0
DWIDTH 16 0
BBX 12 13 2 12
BITMAP
1F80
3FC0
7FE0
F0F0
E070
E070
E070
E070
E070
F0F0
7FE0
3FC0
1F80
ENDCHAR
STARTCHAR 00BB
ENCODING 187
SWIDTH 589 0
DWIDTH 27 0
BBX 20 20 3 2
BITMAP
201800
F03C00
F83C00
7C3E00
3E1F00
1E0F80
1F07C0
0F83C0
07C3E0
03E1F0
03C1F0
07C3E0
0F87C0
1F0F80
3E0F00
3C1F00
7C3E00
F87C00
703800
201000
ENDCHAR
STARTCHAR 00BC
ENCODING 188
SWIDTH 1025 0
DWIDTH 47 0
BBX 39 33 3 0
BITMAP
1E00000800
7E00001E00
FE00001E00
FE00003E00
EE00007C00
8E0000F800
0E0000F000
0E0001F000
0E0003E000
0E0007C000
0E00078000
0E000F8000
0E001F01E0
0E003E03C0
0E003E03C0
0E007C07C0
0E00F80780
0E01F00F80
0E01F00F00
0E03E01F00
0007C01E00
000F803E78
000F803C78
001F003C78
003E007878
007C007878
007C00FFFE
00F800FFFE
01F000FFFE
03F0000078
03E0000078
01C0000078
0080000078
ENDCHAR
STARTCHAR 00BD
ENCODING 189
SWIDTH 1003 0
DWIDTH 46 0
BBX 41 33 3 0
BITMAP
1E0000080000
7E00001E0000
FE00001E0000
FE00003E0000
EE00007C0000
8E0000F80000
0E0000F00000
0E0001F00000
0E0003E00000
0E0007C00000
0E0007C00000
0E000F800000
0E001F01F800
0E003E07FE00
0E003E0FFF00
0E007C0F9F00
0E00F81E0780
0E01F01E0780
0E01F01E0780
0E03E0000780
0E07C0000780
000F80000F80
000F80001F00
001F00003E00
003E00007C00
003E0000F800
007C0001F000
00F80003E000
01F0000FC000
01F0001F8000
03E0001FFF80
01C0001FFF80
0080001FFF80
ENDCHAR
STARTCHAR 00BE
ENCODING 190
SWIDTH 1025 0
DWIDTH 47 0
BBX 42 33 2 0
BITMAP
7FF800008000
7FF80001C000
7FF80003E000
00780003C000
00F00007C000
01E0000F8000
03C0001F0000
0F80001E0000
1FC0003E0000
0FF0007C0000
0FF800F80000
00F800F80000
003801F00000
003C03E03C00
003C07C07C00
003C07C07800
F0780F80F800
F8F81F00F000
7FF81E00F000
3FF03E01E000
1FC07C01E000
0000F803C700
0000F003C700
0001F0078700
0003E0078700
0007C00F0700
0007C00F0700
000F800FFFC0
001F000FFFC0
003E000FFFC0
003E00000700
003C00000700
000800000700
ENDCHAR
STARTCHAR 00BF
ENCODING 191
SWIDTH 545 0
DWIDTH 25 0
BBX 21 34 2 -9
BITMAP
00FC00
00FC00
00FC00
00FC00
00FC00
00FC00
000000
000000
000000
00FC00
00FC00
00FC00
00FC00
01F800
03F800
07F000
0FF000
1FE000
3FC000
3F0000
7F0000
7E0000
7C0000
FC0000
FC0000
FC01F8
FC01F8
7E03F0
7F87F0
3FFFF0
3FFFE0
1FFFC0
07FF80
01FC00
ENDCHAR
STARTCHAR 00C0
ENCODING 192
SWIDTH 676 0
DWIDTH 31 0
BBX 29 45 1 0
BITMAP
00F80000
00780000
00780000
003C0000
003C0000
003E0000
001E0000
001F0000
00000000
00000000
00000000
00000000
003FE000
003FE000
003FE000
007FF000
007FF000
007FF000
00FDF000
00FDF800
00F9F800
01F8F800
01F8FC00
01F0FC00
03F07C00
03F07E00
03F07E00
07E03E00
07E03F00
07E03F00
0FC03F00
0FC01F80
0FC01F80
0FFFFF80
1FFFFFC0
1FFFFFC0
1FFFFFC0
3FFFFFC0
3F0007E0
3E0007E0
7E0003E0
7E0003F0
7C0003F0
FC0001F0
FC0001F8
ENDCHAR
STARTCHAR 00C1
ENCODING 193
SWIDTH 676 0
DWIDTH 31 0
BBX 29 45 1 0
BITMAP
0000F000
0000F000
0001F000
0001E000
0003E000
0003C000
0003C000
00078000
00000000
00000000
00000000
00000000
003FE000
003FE000
003FE000
007FF000
007FF000
007FF000
00FDF000
00FDF800
00F9F800
01F8F800
01F8FC00
01F0FC00
03F07C00
03F07E00
03E07E00
07E07E00
07E03F00
07E03F00
0FC03F00
0FC01F80
0FC01F80
0FFFFF80
1FFFFFC0
1FFFFFC0
1FFFFFC0
3FFFFFC0
3F0007E0
3E0007E0
7E0003E0
7E0003F0
7C0003F0
FC0001F0
FC0001F8
ENDCHAR
STARTCHAR 00C2
ENCODING 194
SWIDTH 676 0
DWIDTH 31 0
BBX 29 44 1 0
BITMAP
000F8000
001FC000
003FE000
007DF000
00F9F800
01F0F800
03F07C00
00000000
00000000
00000000
00000000
003FE000
003FE000
003FE000
007FF000
007FF000
007FF000
00FDF000
00FDF800
00F9F800
01F8F800
01F8FC00
01F0FC00
03F07C00
03F07E00
03E07E00
07E07E00
07E03F00
07E03F00
0FC03F00
0FC01F80
0FC01F80
0FFFFF80
1FFFFFC0
1FFFFFC0
1FFFFFC0
3FFFFFC0
3F0007E0
3E0007E0
7E0003E0
7E0003F0
7C0003F0
FC0001F0
FC0001F8
ENDCHAR
STARTCHAR 00C3
ENCODING 195
SWIDTH 676 0
DWIDTH 31 0
BBX 29 45 1 0
BITMAP
00F81C00
01FC1C00
01FF1C00
03FFFC00
03C7FC00
03C3FC00
01C0F000
00000000
00000000
00000000
00000000
00000000
003FE000
003FE000
003FE000
007FF000
007FF000
007FF000
00FDF000
00FDF800
00F9F800
01F8F800
01F8FC00
01F0FC00
03F07C00
03F07E00
03E07E00
07E07E00
07E03F00
07E03F00
0FC03F00
0FC01F80
0FC01F80
0FFFFF80
1FFFFFC0
1FFFFFC0
1FFFFFC0
3FFFFFC0
3F0007E0
3E0007E0
7E0003E0
7E0003F0
7C0003F0
FC0001F0
FC0001F8
ENDCHAR
STARTCHAR 00C4
ENCODING 196
SWIDTH 676 0
DWIDTH 31 0
BBX 29 42 1 0
BITMAP
01F07C00
01F07C00
01F07C00
01F07C00
01F07C00
00000000
00000000
00000000
00000000
003FE000
003FE000
003FE000
007FF000
007FF000
007FF000
00FDF000
00FDF800
00F9F800
01F8F800
01F8FC00
01F0FC00
03F07C00
03F07E00
03E07E00
07E07E00
07E03F00
07E03F00
0FC03F00
0FC01F80
0FC01F80
0FFFFF80
1FFFFFC0
1FFFFFC0
1FFFFFC0
3FFFFFC0
3F0007E0
3E0007E0
7E0003E0
7E0003F0
7C0003F0
FC0001F0
FC0001F8
ENDCHAR
STARTCHAR 00C5
ENCODING 197
SWIDTH 676 0
DWIDTH 31 0
BBX 29 47 1 0
BITMAP
001F8000
003FE000
007FE000
0078F000
00707000
00F07000
00707000
0078F000
007FE000
003FE000
001FC000
00000000
00000000
00000000
003FE000
003FE000
003FE000
007FF000
007FF000
007FF000
00FDF000
00FDF800
00F9F800
01F8F800
01F8FC00
01F0FC00
03F07C00
03F07E00
03E07E00
07E07E00
07E03F00
07E03F00
0FC03F00
0FC01F80
0FC01F80
0FFFFF80
1FFFFFC0
1FFFFFC0
1FFFFFC0
3FFFFFC0
3F0007E0
3E0007E0
7E0003E0
7E0003F0
7C0003F0
FC0001F0
FC0001F8
ENDCHAR
STARTCHAR 00C6
ENCODING 198
SWIDTH 938 0
DWIDTH 43 0
BBX 40 33 1 0
BITMAP
003FFFFFFF
003FFFFFFF
003FFFFFFF
007FFFFFFF
007FFFFFFF
007C3F0000
00FC3F0000
00FC3F0000
00F83F0000
01F83F0000
01F83F0000
01F03F0000
03F03F0000
03F03FFFF8
03E03FFFF8
07E03FFFF8
07E03FFFF8
07E03FFFF8
0FC03F0000
0FC03F0000
0FC03F0000
0FFFFF0000
1FFFFF0000
1FFFFF0000
1FFFFF0000
3FFFFF0000
3F003F0000
3E003F0000
7E003FFFFF
7E003FFFFF
7C003FFFFF
FC003FFFFF
FC003FFFFF
ENDCHAR
STARTCHAR 00C7
ENCODING 199
SWIDTH 741 0
DWIDTH 34 0
BBX 31 44 1 -11
BITMAP
000FF000
007FFE00
01FFFF80
03FFFFE0
07FFFFF0
0FFC3FF0
1FE007F8
3FC001FC
3F8000FC
3F0000FE
7E00007C
7E000060
7E000000
7C000000
FC000000
FC000000
FC000000
FC000000
FC000000
7C000000
7E000000
7E000000
7E000078
7F00007E
3F0000FC
3F8001FC
1FC003F8
0FF00FF8
07FFFFF0
03FFFFE0
01FFFF80
007FFF00
000FF800
0001C000
0003C000
0003E000
0003F000
0000F000
00007000
0000F000
0007F000
0007F000
0007E000
00038000
ENDCHAR
STARTCHAR 00C8
ENCODING 200
SWIDTH 589 0
DWIDTH 27 0
BBX 22 45 3 0
BITMAP
03C000
03E000
01E000
01E000
00F000
00F000
00F800
007800
000000
000000
000000
000000
FFFFFC
FFFFFC
FFFFFC
FFFFFC
FFFFFC
FC0000
FC0000
FC0000
FC0000
FC0000
FC0000
FC0000
FC0000
FFFFE0
FFFFE0
FFFFE0
FFFFE0
FFFFE0
FC0000
FC0000
FC0000
FC0000
FC0000
FC0000
FC0000
FC0000
FC0000
FC0000
FFFFFC
FFFFFC
FFFFFC
FFFFFC
FFFFFC
ENDCHAR
STARTCHAR 00C9
ENCODING 201
SWIDTH 589 0
DWIDTH 27 0
BBX 22 45 3 0
BITMAP
000780
000F00
000F00
001F00
001E00
001E00
003C00
003C00
000000
000000
000000
000000
FFFFFC
FFFFFC
FFFFFC
FFFFFC
FFFFFC
FC0000
FC0000
FC0000
FC0000
FC0000
FC0000
FC0000
FC0000
FFFFE0
FFFFE0
FFFFE0
FFFFE0
FFFFE0
FC0000
FC0000
FC0000
FC0000
FC0000
FC0000
FC0000
FC0000
FC0000
FC0000
FFFFFC
FFFFFC
FFFFFC
FFFFFC
FFFFFC
ENDCHAR
STARTCHAR 00CA
ENCODING 202
SWIDTH 589 0
DWIDTH 27 0
BBX 22 44 3 0
BITMAP
00F800
01FC00
03FE00
07DF00
0F8F80
1F87C0
1F07C0
200020
000000
000000
000000
FFFFFC
FFFFFC
FFFFFC
FFFFFC
FFFFFC
FC0000
FC0000
FC0000
FC0000
FC0000
FC0000
FC0000
FC0000
FFFFE0
FFFFE0
FFFFE0
FFFFE0
FFFFE0
FC0000
FC0000
FC0000
FC0000
FC0000
FC0000
FC0000
FC0000
FC0000
FC0000
FFFFFC
FFFFFC
FFFFFC
FFFFFC
FFFFFC
ENDCHAR
STARTCHAR 00CB
ENCODING 203
SWIDTH 589 0
DWIDTH 27 0
BBX 22 42 3 0
BITMAP
1F87C0
1F87C0
1F87C0
1F87C0
1F87C0
000000
000000
000000
000000
FFFFFC
FFFFFC
FFFFFC
FFFFFC
FFFFFC
FC0000
FC0000
FC0000
FC0000
FC0000
FC0000
FC0000
FC0000
FFFFE0
FFFFE0
FFFFE0
FFFFE0
FFFFE0
FC0000
FC0000
FC0000
FC0000
FC0000
FC0000
FC0000
FC0000
FC0000
FC0000
FFFFFC
FFFFFC
FFFFFC
FFFFFC
FFFFFC
ENDCHAR
STARTCHAR 00CC
ENCODING 204
SWIDTH 283 0
DWIDTH 13 0
BBX 8 45 1 0
BITMAP
F0
F8
78
78
3C
3C
3E
1E
00
00
00
00
1F
1F
1F
1F
1F
1F
1F
1F
1F
1F
1F
1F
1F
1F
1F
1F
1F
1F
1F
1F
1F
1F
1F
1F
1F
1F
1F
1F
1F
1F
1F
1F
1F
ENDCHAR
STARTCHAR 00CD
ENCODING 205
SWIDTH 283 0
DWIDTH 13 0
BBX 8 45 4 0
BITMAP
0F
1F
1E
3E
3C
3C
78
78
00
00
00
00
F8
F8
F8
F8
F8
F8
F8
F8
F8
F8
F8
F8
F8
F8
F8
F8
F8
F8
F8
F8
F8
F8
F8
F8
F8
F8
F8
F8
F8
F8
F8
F8
F8
ENDCHAR
STARTCHAR 00CE
ENCODING 206
SWIDTH 283 0
DWIDTH 13 0
BBX 16 44 -2 0
BITMAP
03E0
07F0
0FF8
1F7C
3E7E
7C3E
FC1F
0000
0000
0000
0000
03E0
03E0
03E0
03E0
03E0
03E0
03E0
03E0
03E0
03E0
03E0
03E0
03E0
03E0
03E0
03E0
03E0
03E0
03E0
03E0
03E0
03E0
03E0
03E0
03E0
03E0
03E0
03E0
03E0
03E0
03E0
03E0
03E0
ENDCHAR
STARTCHAR 00CF
ENCODING 207
SWIDTH 283 0
DWIDTH 13 0
BBX 15 42 -1 0
BITMAP
F83E
F83E
F83E
F83E
F83E
0000
0000
0000
0000
07C0
07C0
07C0
07C0
07C0
07C0
07C0
07C0
07C0
07C0
07C0
07C0
07C0
07C0
07C0
07C0
07C0
07C0
07C0
07C0
07C0
07C0
07C0
07C0
07C0
07C0
07C0
07C0
07C0
07C0
07C0
07C0
07C0
ENDCHAR
STARTCHAR 00D0
ENCODING 208
SWIDTH 698 0
DWIDTH 32 0
BBX 30 33 0 0
BITMAP
1FFFE000
1FFFFC00
1FFFFF00
1FFFFF80
1FFFFFC0
1F803FE0
1F800FE0
1F8007F0
1F8003F8
1F8001F8
1F8001F8
1F8001F8
1F8000FC
1F8000FC
FFFF00FC
FFFF00FC
FFFF00FC
FFFF00FC
1F8000FC
1F8000FC
1F8000FC
1F8001F8
1F8001F8
1F8001F8
1F8003F0
1F8007F0
1F800FE0
1F803FE0
1FFFFFC0
1FFFFF80
1FFFFF00
1FFFFC00
1FFFF000
ENDCHAR
STARTCHAR 00D1
ENCODING 209
SWIDTH 720 0
DWIDTH 33 0
BBX 27 44 3 0
BITMAP
00F03C00
01FC3C00
03FF3C00
03FFFC00
03CFFC00
03C3F800
03C0F000
00000000
00000000
00000000
00000000
FC0007E0
FE0007E0
FE0007E0
FF0007E0
FF8007E0
FF8007E0
FFC007E0
FFE007E0
FFE007E0
FFF007E0
FFF807E0
FDF807E0
FCFC07E0
FCFE07E0
FC7E07E0
FC3F07E0
FC3F87E0
FC1F87E0
FC0FC7E0
FC0FE7E0
FC07E7E0
FC03F7E0
FC03FFE0
FC01FFE0
FC00FFE0
FC00FFE0
FC007FE0
FC007FE0
FC003FE0
FC001FE0
FC001FE0
FC000FE0
FC0007E0
ENDCHAR
STARTCHAR 00D2
ENCODING 210
SWIDTH 741 0
DWIDTH 34 0
BBX 32 44 1 0
BITMAP
003E0000
001E0000
001E0000
000F0000
000F0000
000F8000
00078000
0007C000
00000000
00000000
00000000
000FF000
007FFE00
01FFFF80
03FFFFE0
07FFFFF0
0FF81FF0
1FE007F8
3F8001FC
3F8000FC
3F0000FE
7E00007E
7E00007E
7E00003F
7C00003F
FC00003F
FC00003F
FC00003F
FC00003F
FC00003F
7C00003F
7E00003F
7E00007E
7E00007E
3F0000FE
3F8000FC
3F8001FC
1FE003F8
0FF81FF8
07FFFFF0
03FFFFE0
01FFFF80
007FFF00
000FF800
ENDCHAR
STARTCHAR 00D3
ENCODING 211
SWIDTH 741 0
DWIDTH 34 0
BBX 32 44 1 0
BITMAP
00007C00
00007800
00007800
0000F000
0000F000
0001F000
0001E000
0001E000
00000000
00000000
00000000
000FF000
007FFE00
01FFFF80
03FFFFE0
07FFFFF0
0FF81FF0
1FE007F8
3F8001FC
3F8000FC
3F0000FE
7E00007E
7E00007E
7E00003F
7C00003F
FC00003F
FC00003F
FC00003F
FC00003F
FC00003F
7C00003F
7E00003F
7E00007E
7E00007E
3F0000FE
3F8000FC
3F8001FC
1FE003F8
0FF81FF8
07FFFFF0
03FFFFE0
01FFFF80
007FFF00
000FF800
ENDCHAR
STARTCHAR 00D4
ENCODING 212
SWIDTH 741 0
DWIDTH 34 0
BBX 32 43 1 0
BITMAP
0007E000
000FF000
000FF800
001FF800
003E7C00
007C3E00
00F81F00
00000000
00000000
00000000
000FF000
007FFE00
01FFFF80
03FFFFE0
07FFFFF0
0FF81FF0
1FE007F8
3F8001FC
3F8000FC
3F0000FE
7E00007E
7E00007E
7E00003F
7C00003F
FC00003F
FC00003F
FC00003F
FC00003F
FC00003F
7C00003F
7E00003F
7E00007E
7E00007E
3F0000FE
3F8000FC
3F8001FC
1FE003F8
0FF81FF8
07FFFFF0
03FFFFE0
01FFFF80
007FFF00
000FF800
ENDCHAR
STARTCHAR 00D5
ENCODING 213
SWIDTH 741 0
DWIDTH 34 0
BBX 32 43 1 0
BITMAP
003E0700
007F8700
007FC780
00FFFF00
00F1FF00
00F0FF00
00703E00
00000000
00000000
00000000
000FF000
007FFE00
01FFFF80
03FFFFE0
07FFFFF0
0FF81FF0
1FE007F8
3F8001FC
3F8000FC
3F0000FE
7E00007E
7E00007E
7E00003F
7C00003F
FC00003F
FC00003F
FC00003F
FC00003F
FC00003F
7C00003F
7E00003F
7E00007E
7E00007E
3F0000FE
3F8000FC
3F8001FC
1FE003F8
0FF81FF8
07FFFFF0
03FFFFE0
01FFFF80
007FFF00
000FF800
ENDCHAR
STARTCHAR 00D6
ENCODING 214
SWIDTH 741 0
DWIDTH 34 0
BBX 32 41 1 0
BITMAP
007C3E00
007C3E00
007C3E00
007C3E00
007C3E00
00000000
00000000
00000000
000FF000
007FFE00
01FFFF80
03FFFFE0
07FFFFF0
0FF81FF0
1FE007F8
3F8001FC
3F8000FC
3F0000FE
7E00007E
7E00007E
7E00003F
7C00003F
FC00003F
FC00003F
FC00003F
FC00003F
FC00003F
7C00003F
7E00003F
7E00007E
7E00007E
3F0000FE
3F8000FC
3F8001FC
1FE003F8
0FF81FF8
07FFFFF0
03FFFFE0
01FFFF80
007FFF00
000FF800
ENDCHAR
STARTCHAR 00D7
ENCODING 215
SWIDTH 501 0
DWIDTH 23 0
BBX 17 18 3 7
BITMAP
200200
700700
F80F80
FC1F80
7E3F00
3F7E00
1FFC00
0FF800
07F000
07F000
0FF800
1FFC00
3F7E00
7E3F00
FC1F80
780F80
300700
000200
ENDCHAR
STARTCHAR 00D8
ENCODING 216
SWIDTH 741 0
DWIDTH 34 0
BBX 32 33 1 0
BITMAP
000FF808
007FFE1C
01FFFFBE
03FFFFFF
07FFFFFE
0FF83FFC
1FE007F8
3F8003FC
3F8007FC
3F000FFE
7E001FFE
7E003FFE
7E007F3F
7C00FE3F
FC01FC3F
FC03F83F
FC07F03F
FC0FE03F
FC1FC03F
7C3F803F
7E7F003F
7EFE007E
7FFC007E
3FF800FE
3FF000FC
1FE001FC
1FE003F8
1FFC1FF8
3FFFFFF0
7FFFFFE0
3FFFFF80
1C7FFE00
080FF800
ENDCHAR
STARTCHAR 00D9
ENCODING 217
SWIDTH 720 0
DWIDTH 33 0
BBX 27 45 3 0
BITMAP
00F80000
00780000
007C0000
003C0000
003C0000
001E0000
001E0000
001F0000
00000000
00000000
00000000
00000000
FC0007E0
FC0007E0
FC0007E0
FC0007E0
FC0007E0
FC0007E0
FC0007E0
FC0007E0
FC0007E0
FC0007E0
FC0007E0
FC0007E0
FC0007E0
FC0007E0
FC0007E0
FC0007E0
FC0007E0
FC0007E0
FC0007E0
FC0007E0
FC0007E0
FC0007E0
FC0007E0
7E000FC0
7E000FC0
7F001FC0
3F803F80
3FE0FF80
1FFFFF00
0FFFFE00
07FFFC00
01FFF000
003FC000
ENDCHAR
STARTCHAR 00DA
ENCODING 218
SWIDTH 720 0
DWIDTH 33 0
BBX 27 45 3 0
BITMAP
0001E000
0003C000
0003C000
0007C000
00078000
000F8000
000F0000
000F0000
00000000
00000000
00000000
00000000
FC0007E0
FC0007E0
FC0007E0
FC0007E0
FC0007E0
FC0007E0
FC0007E0
FC0007E0
FC0007E0
FC0007E0
FC0007E0
FC0007E0
FC0007E0
FC0007E0
FC0007E0
FC0007E0
FC0007E0
FC0007E0
FC0007E0
FC0007E0
FC0007E0
FC0007E0
FC0007E0
7E000FC0
7E000FC0
7F001FC0
3F803F80
3FE0FF80
1FFFFF00
0FFFFE00
07FFFC00
01FFF000
003FC000
ENDCHAR
STARTCHAR 00DB
ENCODING 219
SWIDTH 720 0
DWIDTH 33 0
BBX 27 44 3 0
BITMAP
001F0000
003F8000
007FC000
00FBE000
01F1F000
03E1F800
07E0F800
00000400
00000000
00000000
00000000
FC0007E0
FC0007E0
FC0007E0
FC0007E0
FC0007E0
FC0007E0
FC0007E0
FC0007E0
FC0007E0
FC0007E0
FC0007E0
FC0007E0
FC0007E0
FC0007E0
FC0007E0
FC0007E0
FC0007E0
FC0007E0
FC0007E0
FC0007E0
FC0007E0
FC0007E0
FC0007E0
7E000FC0
7E000FC0
7F001FC0
3F803F80
3FE0FF80
1FFFFF00
0FFFFE00
07FFFC00
01FFF000
003FC000
ENDCHAR
STARTCHAR 00DC
ENCODING 220
SWIDTH 720 0
DWIDTH 33 0
BBX 27 42 3 0
BITMAP
03E0F800
03E0F800
03E0F800
03E0F800
03E0F800
00000000
00000000
00000000
00000000
FC0007E0
FC0007E0
FC0007E0
FC0007E0
FC0007E0
FC0007E0
FC0007E0
FC0007E0
FC0007E0
FC0007E0
FC0007E0
FC0007E0
FC0007E0
FC0007E0
FC0007E0
FC0007E0
FC0007E0
FC0007E0
FC0007E0
FC0007E0
FC0007E0
FC0007E0
FC0007E0
7E000FC0
7E000FC0
7F001FC0
3F803F80
3FE0FF80
1FFFFF00
0FFFFE00
07FFFC00
01FFF000
003FC000
ENDCHAR
STARTCHAR 00DD
ENCODING 221
SWIDTH 610 0
DWIDTH 28 0
BBX 28 45 0 0
BITMAP
0001E000
0001E000
0003C000
0003C000
0007C000
00078000
00078000
000F0000
00000000
00000000
00000000
00000000
FE0007F0
7E0007E0
7F000FE0
3F000FC0
1F801F80
1FC03F80
0FC03F00
0FE07F00
07E07E00
07F0FE00
03F8FC00
01F9F800
01FFF800
00FFF000
00FFF000
007FE000
007FE000
003FC000
001F8000
001F8000
001F8000
001F8000
001F8000
001F8000
001F8000
001F8000
001F8000
001F8000
001F8000
001F8000
001F8000
001F8000
001F8000
ENDCHAR
STARTCHAR 00DE
ENCODING 222
SWIDTH 632 0
DWIDTH 29 0
BBX 25 33 3 0
BITMAP
FC000000
FC000000
FC000000
FC000000
FC000000
FC000000
FFFF8000
FFFFF000
FFFFF800
FFFFFC00
FFFFFE00
FC00FE00
FC007F00
FC003F00
FC003F00
FC001F00
FC001F80
FC001F00
FC003F00
FC003F00
FC007F00
FC00FE00
FFFFFE00
FFFFFC00
FFFFF800
FFFFF000
FFFFC000
FC000000
FC000000
FC000000
FC000000
FC000000
FC000000
ENDCHAR
STARTCHAR 00DF
ENCODING 223
SWIDTH 632 0
DWIDTH 29 0
BBX 23 33 3 0
BITMAP
01FC00
0FFF00
1FFFC0
3FFFE0
7FFFE0
7F8FF0
FE03F0
FC01F0
FC01F8
FC01F8
FC01F0
FC03F0
FC07F0
FC3FE0
FC3FC0
FC3FE0
FC3FF8
FC3FF8
FC03FC
FC00FE
FC007E
FC003E
FC003E
FC003E
FC003E
FC007E
FC00FE
FC67FC
FC7FFC
FC7FF8
FC7FF0
FC7FE0
FC7F80
ENDCHAR
STARTCHAR 00E0
ENCODING 224
SWIDTH 567 0
DWIDTH 26 0
BBX 22 36 2 0
BITMAP
03E000
01E000
01E000
00F000
00F000
00F800
007800
007800
000000
000000
000000
01FE00
07FFC0
1FFFE0
3FFFF0
3FFFF8
7F83F8
7E01F8
0C00FC
0000FC
003FFC
07FFFC
1FFFFC
3FFFFC
7FF8FC
FF00FC
FC00FC
F800FC
F801FC
F803FC
FC07FC
FF3FFC
7FFF7C
3FFE7C
1FFC7C
07F000
ENDCHAR
STARTCHAR 00E1
ENCODING 225
SWIDTH 567 0
DWIDTH 26 0
BBX 22 36 2 0
BITMAP
000780
000F00
000F00
001F00
001E00
001E00
003C00
003C00
000000
000000
000000
01FE00
07FFC0
1FFFE0
3FFFF0
3FFFF8
7F83F8
7E01F8
0C00FC
0000FC
003FFC
07FFFC
1FFFFC
3FFFFC
7FF8FC
FF00FC
FC00FC
F800FC
F801FC
F803FC
FC07FC
FF3FFC
7FFF7C
3FFE7C
1FFC7C
07F000
ENDCHAR
STARTCHAR 00E2
ENCODING 226
SWIDTH 567 0
DWIDTH 26 0
BBX 22 35 2 0
BITMAP
007C00
00FE00
01FF00
03EF80
07C7C0
0FC7E0
0F83E0
100010
000000
000000
01FE00
07FFC0
1FFFE0
3FFFF0
3FFFF8
7F83F8
7E01F8
0C00FC
0000FC
003FFC
07FFFC
1FFFFC
3FFFFC
7FF8FC
FF00FC
FC00FC
F800FC
F801FC
F803FC
FC07FC
FF3FFC
7FFF7C
3FFE7C
1FFC7C
07F03C
ENDCHAR
STARTCHAR 00E3
ENCODING 227
SWIDTH 567 0
DWIDTH 26 0
BBX 22 35 2 0
BITMAP
03C0F0
07F0F0
0FFCF0
0FFFF0
0F3FF0
0E0FE0
0F03C0
000000
000000
000000
01FE00
07FFC0
1FFFE0
3FFFF0
3FFFF8
7F83F8
7E01F8
0C00FC
0000FC
003FFC
07FFFC
1FFFFC
3FFFFC
7FF8FC
FF80FC
FE00FC
FC00FC
F801FC
F801FC
FC07FC
FF3FFC
7FFF7C
3FFE7C
1FFC7C
07F000
ENDCHAR
STARTCHAR 00E4
ENCODING 228
SWIDTH 567 0
DWIDTH 26 0
BBX 22 33 2 0
BITMAP
0F83E0
0F83E0
0F83E0
0F83E0
0F83E0
000000
000000
000000
01FE00
07FFC0
1FFFE0
3FFFF0
3FFFF8
7F83F8
7E01F8
0C00FC
0000FC
003FFC
07FFFC
1FFFFC
3FFFFC
7FF8FC
FF00FC
FC00FC
F800FC
F801FC
F803FC
FC07FC
FF3FFC
7FFF7C
3FFE7C
1FFC7C
07F03C
ENDCHAR
STARTCHAR 00E5
ENCODING 229
SWIDTH 567 0
DWIDTH 26 0
BBX 22 38 2 0
BITMAP
00FE00
01FF00
03FF80
03C780
038380
038380
038380
03EF80
01FF00
00FE00
007C00
000000
000000
01FE00
07FFC0
1FFFE0
3FFFF0
3FFFF8
7F83F8
7E01F8
0C00FC
0000FC
003FFC
07FFFC
1FFFFC
3FFFFC
7FF8FC
FF00FC
FC00FC
F800FC
F801FC
F803FC
FC07FC
FF3FFC
7FFF7C
3FFE7C
1FFC7C
07F000
ENDCHAR
STARTCHAR 00E6
ENCODING 230
SWIDTH 938 0
DWIDTH 43 0
BBX 39 25 2 0
BITMAP
00FE00FF00
07FF83FFC0
0FFFE7FFE0
1FFFFFFFF0
3FFFFFFFF8
7F83FF81F8
7E01FF00FC
0C00FE007C
0000FE007E
0000FC003E
007FFFFFFE
07FFFFFFFE
1FFFFFFFFE
7FFFFFFFFE
7F80FC0000
FC00FC0000
FC00FE0000
F801FE0078
F801FF00FE
FC07FFC3FC
FF3FDFFFF8
7FFF8FFFF8
3FFF07FFE0
1FFE03FFC0
07F0007F00
ENDCHAR
STARTCHAR 00E7
ENCODING 231
SWIDTH 567 0
DWIDTH 26 0
BBX 23 36 2 -11
BITMAP
00FF00
03FFC0
0FFFF0
1FFFF8
3FFFFC
3FC3FC
7F00FE
7E007E
FC0070
FC0000
FC0000
FC0000
FC0000
FC0000
FC0000
FC0000
FC0040
7E007C
7F00FE
7F81FC
3FFFFC
1FFFF8
0FFFF0
03FFC0
00FF00
003800
003800
007E00
007E00
001F00
000F00
000F00
007F00
007E00
00FC00
007800
ENDCHAR
STARTCHAR 00E8
ENCODING 232
SWIDTH 610 0
DWIDTH 28 0
BBX 24 36 2 0
BITMAP
01E000
01F000
00F000
00F000
007800
007800
007C00
003C00
000000
000000
000000
00FF00
03FFC0
0FFFF0
1FFFF8
3FFFF8
3F80FC
7F007E
7E007E
FC003E
FC003E
FFFFFF
FFFFFF
FFFFFF
FFFFFF
FC0000
FC0000
FC0000
7E0078
7F00FE
3FC3FE
3FFFFC
1FFFF8
0FFFF0
03FFC0
007F00
ENDCHAR
STARTCHAR 00E9
ENCODING 233
SWIDTH 610 0
DWIDTH 28 0
BBX 24 36 2 0
BITMAP
0003C0
0007C0
000780
000F80
000F00
000F00
001E00
001E00
000000
000000
000000
00FF00
03FFC0
0FFFF0
1FFFF8
3FFFF8
3F80FC
7F007E
7E007E
FC003E
FC003E
FFFFFF
FFFFFF
FFFFFF
FFFFFF
FC0000
FC0000
FC0000
7E0078
7F00FE
3FC3FE
3FFFFC
1FFFF8
0FFFF0
03FFC0
007F00
ENDCHAR
STARTCHAR 00EA
ENCODING 234
SWIDTH 610 0
DWIDTH 28 0
BBX 24 35 2 0
BITMAP
007E00
00FF00
00FF80
01FF80
03E7C0
07C3E0
0F81F0
000000
000000
000000
00FF00
03FFC0
0FFFF0
1FFFF8
3FFFF8
3F80FC
7F007E
7E007E
FC003E
FC003E
FFFFFF
FFFFFF
FFFFFF
FFFFFF
FC0000
FC0000
FC0000
7E0078
7F00FE
3FC3FE
3FFFFC
1FFFF8
0FFFF0
03FFC0
007F00
ENDCHAR
STARTCHAR 00EB
ENCODING 235
SWIDTH 610 0
DWIDTH 28 0
BBX 24 33 2 0
BITMAP
07C3E0
07C3E0
07C3E0
07C3E0
07C3E0
000000
000000
000000
00FF00
03FFC0
0FFFF0
1FFFF8
3FFFF8
3F80FC
7F007E
7E007E
FC003E
FC003E
FFFFFF
FFFFFF
FFFFFF
FFFFFF
FC0000
FC0000
FC0000
7E0078
7F00FE
3FC3FE
3FFFFC
1FFFF8
0FFFF0
03FFC0
007F00
ENDCHAR
STARTCHAR 00EC
ENCODING 236
SWIDTH 283 0
DWIDTH 13 0
BBX 8 37 1 0
BITMAP
F0
F8
78
78
3C
3C
3E
1E
00
00
00
00
1F
1F
1F
1F
1F
1F
1F
1F
1F
1F
1F
1F
1F
1F
1F
1F
1F
1F
1F
1F
1F
1F
1F
1F
1F
ENDCHAR
STARTCHAR 00ED
ENCODING 237
SWIDTH 283 0
DWIDTH 13 0
BBX 8 37 4 0
BITMAP
0F
1E
1E
3E
3C
3C
78
78
00
00
00
00
F8
F8
F8
F8
F8
F8
F8
F8
F8
F8
F8
F8
F8
F8
F8
F8
F8
F8
F8
F8
F8
F8
F8
F8
F8
ENDCHAR
STARTCHAR 00EE
ENCODING 238
SWIDTH 283 0
DWIDTH 13 0
BBX 16 36 -1 0
BITMAP
07C0
0FE0
1FF0
3EF8
7E7C
7C3E
F81F
0000
0000
0000
0000
07C0
07C0
07C0
07C0
07C0
07C0
07C0
07C0
07C0
07C0
07C0
07C0
07C0
07C0
07C0
07C0
07C0
07C0
07C0
07C0
07C0
07C0
07C0
07C0
07C0
ENDCHAR
STARTCHAR 00EF
ENCODING 239
SWIDTH 283 0
DWIDTH 13 0
BBX 15 33 -1 0
BITMAP
F83E
F83E
F83E
F83E
F83E
0000
0000
0000
07C0
07C0
07C0
07C0
07C0
07C0
07C0
07C0
07C0
07C0
07C0
07C0
07C0
07C0
07C0
07C0
07C0
07C0
07C0
07C0
07C0
07C0
07C0
07C0
07C0
ENDCHAR
STARTCHAR 00F0
ENCODING 240
SWIDTH 589 0
DWIDTH 27 0
BBX 23 35 2 1
BITMAP
0000C0
00F9E0
00FFE0
00FFE0
01FFC0
001FE0
003FF0
003FF0
003CF8
00087C
00007C
00FE3C
03FFBE
0FFFFE
1FFFFE
3FFFFE
3F83FE
7E00FE
7C007E
FC007E
FC003E
F8003E
F8003E
F8003E
F8003E
FC003E
FC007E
7C007E
7E00FC
7F81FC
3FFFF8
1FFFF0
0FFFE0
07FFC0
00FF00
ENDCHAR
STARTCHAR 00F1
ENCODING 241
SWIDTH 632 0
DWIDTH 29 0
BBX 23 36 3 0
BITMAP
07C000
0FE0E0
0FF8E0
1FFCE0
1E7FE0
1E3FE0
1E1FE0
000780
000000
000000
000000
007F80
F9FFE0
FBFFF0
FFFFF8
FFFFF8
FF83FC
FF01FC
FE00FC
FC007E
FC007E
FC007E
FC007E
FC007E
FC007E
FC007E
FC007E
FC007E
FC007E
FC007E
FC007E
FC007E
FC007E
FC007E
FC007E
FC007E
ENDCHAR
STARTCHAR 00F2
ENCODING 242
SWIDTH 610 0
DWIDTH 28 0
BBX 24 36 2 0
BITMAP
01E000
01E000
01F000
00F000
00F000
007800
007800
003C00
000000
000000
000000
00FF00
03FFC0
0FFFF0
1FFFF8
3FFFFC
3FC3FE
7F00FE
7E007F
FC003F
FC003F
FC003F
FC003F
FC001F
FC001F
FC003F
FC003F
FC003F
7E007F
7F00FE
3FC3FE
3FFFFC
1FFFF8
0FFFF0
03FFC0
00FF00
ENDCHAR
STARTCHAR 00F3
ENCODING 243
SWIDTH 610 0
DWIDTH 28 0
BBX 24 36 2 0
BITMAP
000780
000780
000F80
000F00
000F00
001E00
001E00
003E00
000000
000000
000000
00FF00
03FFC0
0FFFF0
1FFFF8
3FFFFC
3FC3FE
7F00FE
7E007F
FC003F
FC003F
FC003F
FC003F
FC001F
FC001F
FC003F
FC003F
FC003F
7E007F
7F00FE
3FC3FE
3FFFFC
1FFFF8
0FFFF0
03FFC0
00FF00
ENDCHAR
STARTCHAR 00F4
ENCODING 244
SWIDTH 610 0
DWIDTH 28 0
BBX 24 35 2 0
BITMAP
007E00
00FF00
00FF80
01FF80
03E7C0
07C3E0
0F81F0
000000
000000
000000
00FF00
03FFC0
0FFFF0
1FFFF8
3FFFFC
3FC3FE
7F00FE
7E007F
FC003F
FC003F
FC003F
FC003F
FC001F
FC001F
FC003F
FC003F
FC003F
7E007F
7F00FE
3FC3FE
3FFFFC
1FFFF8
0FFFF0
03FFC0
00FF00
ENDCHAR
STARTCHAR 00F5
ENCODING 245
SWIDTH 610 0
DWIDTH 28 0
BBX 24 35 2 0
BITMAP
03C0F0
07F070
0FFCF0
0FFFF0
0F3FF0
0F0FE0
0F03C0
000000
000000
000000
00FF00
03FFC0
0FFFF0
1FFFF8
3FFFFC
3FC3FE
7F00FE
7E007F
FC003F
FC003F
FC003F
FC003F
FC001F
FC001F
FC003F
FC003F
FC003F
7E007F
7F00FE
3FC3FE
3FFFFC
1FFFF8
0FFFF0
03FFC0
00FF00
ENDCHAR
STARTCHAR 00F6
ENCODING 246
SWIDTH 610 0
DWIDTH 28 0
BBX 24 33 2 0
BITMAP
07C3E0
07C3E0
07C3E0
07C3E0
07C3E0
000000
000000
000000
00FF00
03FFC0
0FFFF0
1FFFF8
3FFFFC
3FC3FE
7F00FE
7E007F
FC003F
FC003F
FC003F
FC003F
FC001F
FC001F
FC003F
FC003F
FC003F
7E007F
7F00FE
3FC3FE
3FFFFC
1FFFF8
0FFFF0
03FFC0
00FF00
ENDCHAR
STARTCHAR 00F7
ENCODING 247
SWIDTH 545 0
DWIDTH 25 0
BBX 19 19 3 7
BITMAP
01F000
01F000
01F000
01F000
01F000
000000
000000
FFFFE0
FFFFE0
FFFFE0
FFFFE0
000000
000000
000000
01F000
01F000
01F000
01F000
01F000
ENDCHAR
STARTCHAR 00F8
ENCODING 248
SWIDTH 610 0
DWIDTH 28 0
BBX 26 25 1 0
BITMAP
007F8200
01FFE700
07FFFF80
0FFFFFC0
1FFFFF80
1FE1FF00
3F807F00
3F00FF80
7E01FF80
7E03FF80
7E0FDF80
7E1F8F80
7E3F0F80
7E7E0F80
7EFC1F80
7FF81F80
7FF01F80
3FE03F80
3FC07F00
3FE1FF00
7FFFFE00
FFFFFC00
7FFFF800
39FFE000
107F8000
ENDCHAR
STARTCHAR 00F9
ENCODING 249
SWIDTH 632 0
DWIDTH 29 0
BBX 22 38 3 -1
BITMAP
03C000
03C000
01E000
01E000
01F000
00F000
00F000
007800
000000
000000
000000
000000
F8007C
F8007C
F8007C
F8007C
F8007C
F8007C
F8007C
F8007C
F8007C
F8007C
F8007C
F8007C
F8007C
F8007C
F8007C
FC007C
FC00FC
FC00FC
FE00FC
FE01FC
7F87FC
7FFFFC
3FFFFC
1FFFBC
0FFE3C
03F800
ENDCHAR
STARTCHAR 00FA
ENCODING 250
SWIDTH 632 0
DWIDTH 29 0
BBX 22 38 3 -1
BITMAP
000F00
000F00
001E00
001E00
003E00
003C00
003C00
007800
000000
000000
000000
000000
F8007C
F8007C
F8007C
F8007C
F8007C
F8007C
F8007C
F8007C
F8007C
F8007C
F8007C
F8007C
F8007C
F8007C
F8007C
FC007C
FC00FC
FC00FC
FE00FC
FE01FC
7F87FC
7FFFFC
3FFFFC
1FFFBC
0FFE3C
03F800
ENDCHAR
STARTCHAR 00FB
ENCODING 251
SWIDTH 632 0
DWIDTH 29 0
BBX 22 37 3 -1
BITMAP
00FC00
01FE00
01FF00
03FF00
07CF80
0F87C0
1F03E0
000000
000000
000000
000000
F8007C
F8007C
F8007C
F8007C
F8007C
F8007C
F8007C
F8007C
F8007C
F8007C
F8007C
F8007C
F8007C
F8007C
F8007C
FC007C
FC00FC
FC00FC
FE00FC
FE01FC
7F87FC
7FFFFC
3FFFFC
1FFFBC
0FFE3C
03F800
ENDCHAR
STARTCHAR 00FC
ENCODING 252
SWIDTH 632 0
DWIDTH 29 0
BBX 22 34 3 -1
BITMAP
0F87C0
0F87C0
0F87C0
0F87C0
0F87C0
000000
000000
000000
F8007C
F8007C
F8007C
F8007C
F8007C
F8007C
F8007C
F8007C
F8007C
F8007C
F8007C
F8007C
F8007C
F8007C
F8007C
FC007C
FC00FC
FC00FC
FE00FC
FE01FC
7F87FC
7FFFFC
3FFFFC
1FFFBC
0FFE3C
03F800
ENDCHAR
STARTCHAR 00FD
ENCODING 253
SWIDTH 567 0
DWIDTH 26 0
BBX 24 48 1 -11
BITMAP
0007C0
000780
000F80
000F00
000F00
001E00
001E00
003E00
000000
000000
000000
000000
F8001F
FC003F
7C003E
7E003E
7E007E
3E007C
3F00FC
1F00FC
1F80F8
1F81F8
0F81F0
0FC1F0
07C3F0
07E3E0
07E7E0
03E7C0
03F7C0
01FFC0
01FF80
01FF80
00FF80
00FF00
007F00
007E00
007E00
007E00
007C00
00FC00
00F800
00F800
01F800
01F000
01F000
03F000
03E000
03E000
ENDCHAR
STARTCHAR 00FE
ENCODING 254
SWIDTH 610 0
DWIDTH 28 0
BBX 23 43 3 -10
BITMAP
FC0000
FC0000
FC0000
FC0000
FC0000
FC0000
FC0000
FC0000
FCFE00
FFFFC0
FFFFE0
FFFFF0
FFFFF8
FF03FC
FE01FC
FC00FE
FC007E
F8007E
F8007E
F8007E
F8003E
F8007E
F8007E
F8007E
FC007E
FC00FE
FE01FC
FF03FC
FFFFF8
FFFFF0
FFFFE0
FFFFC0
FC7E00
FC0000
FC0000
FC0000
FC0000
FC0000
FC0000
FC0000
FC0000
FC0000
FC0000
ENDCHAR
STARTCHAR 00FF
ENCODING 255
SWIDTH 567 0
DWIDTH 26 0
BBX 24 44 1 -11
BITMAP
07C3E0
07C3E0
07C3E0
07C3E0
07C3E0
000000
000000
000000
F8001F
FC003F
7C003E
7E003E
7E007E
3E007C
3F00FC
1F00FC
1F80F8
1F81F8
0F81F0
0FC1F0
07C3F0
07E3E0
07E7E0
03E7C0
03F7C0
01FFC0
01FF80
01FF80
00FF80
00FF00
007F00
007E00
007E00
007E00
007C00
00FC00
00F800
00F800
01F800
01F000
01F000
03F000
03E000
03E000
ENDCHAR
ENDFONT
